<?xml version="1.0" encoding="UTF-8" standalone="no"?>
<!DOCTYPE svg PUBLIC "-//W3C//DTD SVG 20010904//EN" "http://www.w3.org/TR/2001/REC-SVG-20010904/DTD/svg10.dtd">
<svg version="1.0" xmlns="http://www.w3.org/2000/svg" width="1000.000000pt" height="1000.000000pt" viewBox="0 0 1000.000000 1000.000000" preserveAspectRatio="xMidYMid meet">
  <path fill="#060609" stroke="none" d=" M0 500  L0 0  L500 0  L1000 0  L1000 500  L1000 1000  L500 1000  L0 1000  L0 500  Z  " />
  <path fill="#940607" stroke="none" d=" M0 500  L0 0  L500 0  L1000 0  L1000 500  L1000 1000  L500 1000  L0 1000  L0 500  Z  M442 886  C441 885 442 879 444 864  C445 852 447 842 448 842  C448 841 452 841 458 842  C463 843 468 843 468 843  C468 843 469 840 469 838  L470 833  L468 834  C468 835 465 835 461 834  C452 833 428 829 424 827  L420 826  L419 826  C419 827 417 834 417 835  L417 836  L418 835  C420 835 435 838 436 840  C437 841 430 881 428 883  L427 885  L431 886  C433 886 436 887 438 887  C440 887 442 888 442 888  L443 888  L442 886  Z  M578 885  C582 884 586 881 588 879  C592 875 592 875 592 868  C591 864 590 854 588 846  C586 837 584 829 584 828  L585 826  L583 826  C582 827 579 827 577 828  L572 829  L572 830  C572 830 573 831 573 833  C575 838 580 859 580 866  C580 870 580 871 578 874  C574 878 565 880 559 880  C553 879 550 876 548 871  C547 865 544 838 545 836  L545 834  L541 835  C538 835 536 835 534 836  L532 836  L532 837  C533 838 534 846 535 855  C537 886 540 888 561 888  C568 887 573 887 578 885  Z  M340 856  C339 854 335 836 335 832  L335 830  L341 830  C349 830 352 829 355 822  C359 813 357 806 349 801  C347 799 344 798 344 798  C343 798 337 794 330 790  C323 786 316 782 316 782  L315 782  L315 784  C314 787 290 824 288 826  L286 828  L291 831  C294 833 297 835 298 835  L299 835  L299 833  C299 831 307 816 309 816  C310 816 313 818 317 820  C324 824 324 824 325 832  C326 837 326 843 326 846  C327 851 327 851 333 854  C336 856 339 857 340 857  L341 857  L340 856  Z  M697 841  C705 837 714 830 719 822  C721 818 723 815 723 815  L723 814  L722 814  C720 814 712 803 712 801  L712 799  L712 799  C712 799 707 802 701 806  C696 809 690 812 689 813  L686 813  L686 814  C686 814 687 816 689 819  L691 823  L692 822  C693 820 704 812 706 812  C708 812 710 816 710 819  C710 821 700 830 695 833  C690 835 681 836 677 834  C671 830 666 823 666 815  C666 808 668 804 673 800  C679 794 692 791 695 794  L696 795  L696 795  C697 794 696 783 695 782  L694 782  L693 783  C692 783 689 784 685 785  C678 786 668 791 663 797  C661 799 658 803 656 806  C650 820 657 838 671 844  C673 845 677 845 683 845  C689 844 692 844 697 841  Z  M792 763  C790 763 786 756 786 753  C786 752 799 735 803 732  C804 730 814 733 815 735  L815 737  L816 737  C817 737 817 736 818 735  C819 734 821 730 823 728  C825 725 827 722 827 722  L827 721  L825 722  C820 723 775 714 771 711  L768 709  L765 713  C763 715 761 717 760 718  L759 720  L761 721  C762 722 763 725 765 727  C767 733 777 758 780 768  L783 775  L788 769  L794 764  L792 763  Z  M235 767  C242 765 250 758 252 750  C256 739 253 726 243 716  C236 709 231 707 221 707  C212 707 206 709 200 716  C188 728 192 750 208 762  C217 769 225 770 235 767  Z  M535 713  C535 710 536 707 537 705  C538 703 558 684 562 681  C566 679 582 663 586 657  C587 656 589 652 590 650  L592 646  L592 646  C592 646 547 646 492 646  L392 646  L397 649  C402 652 414 660 420 664  C422 665 423 666 424 666  C424 666 425 667 426 668  C427 669 430 671 433 673  C440 677 459 696 463 702  C466 706 466 707 466 713  L466 719  L500 719  L533 719  L535 713  Z  M648 665  C649 665 653 663 657 662  C666 660 687 649 687 647  L687 646  L663 646  C640 645 640 645 632 652  C628 655 624 659 623 661  L622 663  L623 665  C624 666 627 666 635 666  C641 666 647 666 648 665  Z  M871 641  C873 635 876 627 877 625  C878 623 880 618 880 615  C881 611 883 608 883 607  L884 606  L879 605  C877 604 874 603 874 603  L873 603  L874 605  C874 607 863 640 861 641  C860 641 827 629 822 625  L818 623  L816 629  C815 632 814 635 814 635  L814 636  L816 635  C818 635 862 655 863 657  L863 658  L865 656  C865 654 868 648 871 641  Z  M182 649  C186 646 189 641 189 636  C189 634 187 627 185 621  C183 615 180 607 178 603  C177 598 176 594 175 594  L175 594  L173 596  C170 598 127 611 124 611  L123 610  L123 611  C123 612 124 615 125 619  L127 625  L129 624  C131 622 144 617 147 617  L149 617  L150 619  C152 626 159 642 160 644  C165 651 174 653 182 649  Z  M156 442  C169 436 176 416 173 396  L172 388  L170 388  C167 388 158 385 156 383  L154 382  L154 382  C154 385 146 408 145 409  L144 411  L145 411  C146 412 148 412 150 413  L154 414  L154 409  C155 406 155 402 156 400  L157 396  L160 396  C165 396 166 400 166 407  C165 411 164 416 163 418  C160 430 147 437 137 433  C133 431 128 426 126 422  C124 417 125 409 127 402  C129 397 135 390 138 389  L139 388  L136 384  C133 381 131 379 131 379  C130 379 123 391 120 396  C118 403 116 415 116 422  C117 429 121 437 125 441  C134 447 146 448 156 442  Z  M856 443  C858 442 859 441 860 438  L861 435  L862 435  C863 435 864 436 866 437  C873 441 882 439 885 433  C887 426 886 417 878 389  L875 376  L873 378  C871 379 828 393 825 393  L823 393  L825 398  C825 400 828 409 830 417  C834 437 836 441 843 444  C847 445 852 445 856 443  Z  M471 420  C473 419 474 408 475 393  C475 382 475 382 472 376  C468 368 467 365 464 363  C463 361 462 360 462 359  L462 358  L461 358  C461 358 459 355 457 352  C454 347 454 347 412 347  L371 347  L371 348  C371 349 376 352 381 356  C387 359 392 363 392 365  C394 367 393 369 384 379  C380 383 376 387 375 389  C373 391 371 394 368 397  C366 400 364 403 364 404  L364 406  L368 405  C372 405 385 399 392 396  C394 395 397 394 398 394  L400 395  L400 404  C400 412 400 414 402 418  C404 422 404 422 437 421  C458 421 471 421 471 420  Z  M680 418  C678 416 674 414 671 412  C667 411 664 409 663 409  C662 408 658 407 654 406  C651 405 646 404 645 403  C631 399 596 403 581 410  C578 412 575 413 575 413  C574 413 564 419 562 420  L562 421  L623 421  L684 421  L680 418  Z  M509 387  C517 382 525 367 527 353  L527 347  L513 347  L499 347  L499 348  C499 349 500 352 501 355  C503 360 503 363 503 375  L502 388  L504 388  C505 388 507 387 509 387  Z  M209 326  C212 321 226 301 231 294  C232 292 234 291 235 291  L236 291  L236 290  C236 290 234 288 232 286  L228 283  L227 285  C227 286 226 288 225 289  C222 292 218 298 212 307  C209 311 206 314 205 315  C204 315 193 309 193 307  C193 306 202 293 206 289  L208 286  L205 283  C203 281 201 280 201 280  C201 280 197 285 193 291  C189 297 185 302 184 302  C183 302 175 298 174 296  C173 294 196 263 199 263  L200 263  L200 262  C200 261 192 255 191 255  L190 255  L190 257  C190 258 188 261 179 273  C172 282 159 303 159 305  L159 305  L161 305  C164 305 203 328 204 330  C205 331 205 332 206 332  C206 332 207 329 209 326  Z  M810 325  C812 324 819 320 827 316  C837 310 842 308 843 308  L845 309  L845 308  C845 308 843 304 840 300  L836 293  L835 294  C835 295 830 299 824 304  C810 312 805 315 801 315  C796 315 790 310 785 301  C782 294 782 292 786 288  C789 284 812 267 815 266  L817 265  L812 259  L807 253  L805 255  C803 257 797 262 790 267  C784 273 777 278 775 280  C773 284 773 285 773 291  C773 297 774 299 778 305  C788 324 800 331 810 325  Z  M511 267  C509 265 504 258 499 253  C491 246 488 243 481 240  C463 231 453 229 434 229  C415 229 401 233 385 244  C377 249 363 263 360 268  L358 272  L436 272  L514 272  L511 267  Z  M285 237  C284 236 282 234 281 231  C280 226 280 226 284 222  C289 217 301 209 303 209  C305 209 312 214 312 216  L312 218  L313 218  C313 218 316 216 320 213  L327 209  L321 206  C311 200 302 195 298 193  C296 191 290 188 286 186  C280 183 277 181 276 180  L276 178  L275 178  C275 178 272 180 267 184  L260 189  L262 191  C263 192 265 196 266 206  C269 217 273 237 275 245  L275 247  L281 242  L286 238  L285 237  Z  M730 238  L730 237  L729 237  C728 237 725 235 722 233  C720 231 714 226 709 222  C704 219 700 215 700 214  C700 213 705 205 712 196  C720 184 724 179 725 179  L728 179  L720 174  L713 169  L712 171  C711 174 688 211 686 213  L684 215  L685 216  C686 216 690 219 694 222  C704 228 723 244 723 245  L723 247  L727 243  C728 240 730 238 730 238  Z  M389 181  L396 178  L395 177  C393 175 387 160 388 158  C389 156 403 152 404 153  C412 158 421 167 422 168  L423 171  L430 169  L437 167  L427 159  C421 154 417 150 417 149  C417 149 419 147 421 146  C426 143 429 139 428 132  C428 124 424 120 415 119  C411 118 407 119 397 121  C385 124 371 129 365 132  L363 132  L365 134  C367 137 382 179 382 181  L381 183  L381 183  C381 183 385 182 389 181  Z  M630 178  C630 177 629 175 629 172  L628 168  L627 168  C626 168 625 169 624 170  C622 171 619 171 614 171  C607 171 606 171 599 168  C592 164 589 161 587 156  C583 146 588 135 598 131  C602 130 603 130 609 131  C613 131 618 133 620 134  C625 137 632 143 633 146  L635 149  L640 146  L645 143  L638 136  C629 129 621 125 611 122  C594 119 582 123 577 134  C574 139 574 141 574 147  C574 156 576 160 581 166  C589 175 600 179 618 179  L630 179  L630 178  Z  M329 817  C316 810 314 809 314 807  C314 805 320 796 322 796  C324 796 343 807 345 809  C346 812 346 812 345 815  C343 819 341 821 338 821  C338 821 333 819 329 817  Z  M778 734  C776 730 774 726 774 725  L774 724  L776 724  C778 724 792 728 793 729  L794 730  L789 736  C786 740 783 743 783 743  C782 743 780 739 778 734  Z  M218 757  C213 755 208 750 205 745  C203 742 203 740 203 736  C204 729 208 723 215 720  C223 715 230 716 237 722  C244 729 246 737 242 745  C236 755 226 760 218 757  Z  M168 638  C165 636 159 622 157 616  L157 613  L161 611  C163 611 166 610 168 610  L171 610  L174 616  C180 630 180 632 179 635  C177 637 173 640 171 640  C171 640 169 639 168 638  Z  M845 432  C842 430 841 428 838 416  C836 407 835 404 836 403  C838 402 846 399 848 399  L850 399  L851 403  C853 412 856 424 856 426  C856 431 849 435 845 432  Z  M867 425  C865 423 864 419 862 411  C860 405 859 399 859 398  L859 396  L862 395  C863 394 866 394 868 393  L871 393  L872 397  C873 400 874 405 875 408  C878 418 878 423 875 425  C872 428 869 427 867 425  Z  M278 214  C277 212 275 201 275 197  L275 194  L276 194  C277 194 294 204 294 205  C294 205 282 214 280 215  L279 215  L278 214  Z  M383 145  C382 144 382 141 382 139  L382 135  L394 131  C401 129 408 127 409 127  C412 127 416 131 416 134  C416 136 415 138 414 139  C412 141 389 148 386 148  L384 148  L383 145  Z  " />
  <path fill="#0202fa" stroke="none" d=" M0 500  L0 0  L500 0  L1000 0  L1000 500  L1000 1000  L500 1000  L0 1000  L0 500  Z  M442 886  C441 885 442 879 444 864  C445 852 447 842 448 842  C448 841 452 841 458 842  C463 843 468 843 468 843  C468 843 469 840 469 838  L470 833  L468 834  C468 835 465 835 461 834  C452 833 428 829 424 827  L420 826  L419 826  C419 827 417 834 417 835  L417 836  L418 835  C420 835 435 838 436 840  C437 841 430 881 428 883  L427 885  L431 886  C433 886 436 887 438 887  C440 887 442 888 442 888  L443 888  L442 886  Z  M578 885  C582 884 586 881 588 879  C592 875 592 875 592 868  C591 864 590 854 588 846  C586 837 584 829 584 828  L585 826  L583 826  C582 827 579 827 577 828  L572 829  L572 830  C572 830 573 831 573 833  C575 838 580 859 580 866  C580 870 580 871 578 874  C574 878 565 880 559 880  C553 879 550 876 548 871  C547 865 544 838 545 836  L545 834  L541 835  C538 835 536 835 534 836  L532 836  L532 837  C533 838 534 846 535 855  C537 886 540 888 561 888  C568 887 573 887 578 885  Z  M340 856  C339 854 335 836 335 832  L335 830  L341 830  C349 830 352 829 355 822  C359 813 357 806 349 801  C347 799 344 798 344 798  C343 798 337 794 330 790  C323 786 316 782 316 782  L315 782  L315 784  C314 787 290 824 288 826  L286 828  L291 831  C294 833 297 835 298 835  L299 835  L299 833  C299 831 307 816 309 816  C310 816 313 818 317 820  C324 824 324 824 325 832  C326 837 326 843 326 846  C327 851 327 851 333 854  C336 856 339 857 340 857  L341 857  L340 856  Z  M697 841  C705 837 714 830 719 822  C721 818 723 815 723 815  L723 814  L722 814  C720 814 712 803 712 801  L712 799  L712 799  C712 799 707 802 701 806  C696 809 690 812 689 813  L686 813  L686 814  C686 814 687 816 689 819  L691 823  L692 822  C693 820 704 812 706 812  C708 812 710 816 710 819  C710 821 700 830 695 833  C690 835 681 836 677 834  C671 830 666 823 666 815  C666 808 668 804 673 800  C679 794 692 791 695 794  L696 795  L696 795  C697 794 696 783 695 782  L694 782  L693 783  C692 783 689 784 685 785  C678 786 668 791 663 797  C661 799 658 803 656 806  C650 820 657 838 671 844  C673 845 677 845 683 845  C689 844 692 844 697 841  Z  M792 763  C790 763 786 756 786 753  C786 752 799 735 803 732  C804 730 814 733 815 735  L815 737  L816 737  C817 737 817 736 818 735  C819 734 821 730 823 728  C825 725 827 722 827 722  L827 721  L825 722  C820 723 775 714 771 711  L768 709  L765 713  C763 715 761 717 760 718  L759 720  L761 721  C762 722 763 725 765 727  C767 733 777 758 780 768  L783 775  L788 769  L794 764  L792 763  Z  M235 767  C242 765 250 758 252 750  C256 739 253 726 243 716  C236 709 231 707 221 707  C212 707 206 709 200 716  C188 728 192 750 208 762  C217 769 225 770 235 767  Z  M535 713  C535 710 536 707 537 705  C538 703 558 684 562 681  C566 679 582 663 586 657  C587 656 589 652 590 650  L592 646  L592 646  C592 646 547 646 492 646  L392 646  L397 649  C402 652 414 660 420 664  C422 665 423 666 424 666  C424 666 425 667 426 668  C427 669 430 671 433 673  C440 677 459 696 463 702  C466 706 466 707 466 713  L466 719  L500 719  L533 719  L535 713  Z  M648 665  C649 665 653 663 657 662  C666 660 687 649 687 647  L687 646  L663 646  C640 645 640 645 632 652  C628 655 624 659 623 661  L622 663  L623 665  C624 666 627 666 635 666  C641 666 647 666 648 665  Z  M871 641  C873 635 876 627 877 625  C878 623 880 618 880 615  C881 611 883 608 883 607  L884 606  L879 605  C877 604 874 603 874 603  L873 603  L874 605  C874 607 863 640 861 641  C860 641 827 629 822 625  L818 623  L816 629  C815 632 814 635 814 635  L814 636  L816 635  C818 635 862 655 863 657  L863 658  L865 656  C865 654 868 648 871 641  Z  M182 649  C186 646 189 641 189 636  C189 634 187 627 185 621  C183 615 180 607 178 603  C177 598 176 594 175 594  L175 594  L173 596  C170 598 127 611 124 611  L123 610  L123 611  C123 612 124 615 125 619  L127 625  L129 624  C131 622 144 617 147 617  L149 617  L150 619  C152 626 159 642 160 644  C165 651 174 653 182 649  Z  M722 612  C729 602 737 586 740 575  C744 564 746 558 746 556  C746 555 747 551 747 547  C750 528 747 505 741 492  C740 489 738 485 737 483  C732 471 725 464 710 458  C703 455 693 454 686 457  C671 461 661 470 660 482  C659 489 657 490 650 488  C640 484 628 488 617 496  C608 503 606 510 606 524  C606 531 606 533 608 536  C609 537 610 539 610 541  C612 546 632 561 636 561  C637 561 638 561 638 562  C639 562 641 563 644 563  C647 564 651 565 653 565  C656 566 659 567 662 567  C671 569 679 571 685 575  C701 583 706 588 711 598  C713 604 714 606 714 611  C714 621 715 621 722 612  Z  M156 442  C169 436 176 416 173 396  L172 388  L170 388  C167 388 158 385 156 383  L154 382  L154 382  C154 385 146 408 145 409  L144 411  L145 411  C146 412 148 412 150 413  L154 414  L154 409  C155 406 155 402 156 400  L157 396  L160 396  C165 396 166 400 166 407  C165 411 164 416 163 418  C160 430 147 437 137 433  C133 431 128 426 126 422  C124 417 125 409 127 402  C129 397 135 390 138 389  L139 388  L136 384  C133 381 131 379 131 379  C130 379 123 391 120 396  C118 403 116 415 116 422  C117 429 121 437 125 441  C134 447 146 448 156 442  Z  M856 443  C858 442 859 441 860 438  L861 435  L862 435  C863 435 864 436 866 437  C873 441 882 439 885 433  C887 426 886 417 878 389  L875 376  L873 378  C871 379 828 393 825 393  L823 393  L825 398  C825 400 828 409 830 417  C834 437 836 441 843 444  C847 445 852 445 856 443  Z  M471 420  C473 419 474 408 475 393  C475 382 475 382 472 376  C468 368 467 365 464 363  C463 361 462 360 462 359  L462 358  L461 358  C461 358 459 355 457 352  C454 347 454 347 412 347  L371 347  L371 348  C371 349 376 352 381 356  C387 359 392 363 392 365  C394 367 393 369 384 379  C380 383 376 387 375 389  C373 391 371 394 368 397  C366 400 364 403 364 404  L364 406  L368 405  C372 405 385 399 392 396  C394 395 397 394 398 394  L400 395  L400 404  C400 412 400 414 402 418  C404 422 404 422 437 421  C458 421 471 421 471 420  Z  M680 418  C678 416 674 414 671 412  C667 411 664 409 663 409  C662 408 658 407 654 406  C651 405 646 404 645 403  C631 399 596 403 581 410  C578 412 575 413 575 413  C574 413 564 419 562 420  L562 421  L623 421  L684 421  L680 418  Z  M509 387  C517 382 525 367 527 353  L527 347  L513 347  L499 347  L499 348  C499 349 500 352 501 355  C503 360 503 363 503 375  L502 388  L504 388  C505 388 507 387 509 387  Z  M209 326  C212 321 226 301 231 294  C232 292 234 291 235 291  L236 291  L236 290  C236 290 234 288 232 286  L228 283  L227 285  C227 286 226 288 225 289  C222 292 218 298 212 307  C209 311 206 314 205 315  C204 315 193 309 193 307  C193 306 202 293 206 289  L208 286  L205 283  C203 281 201 280 201 280  C201 280 197 285 193 291  C189 297 185 302 184 302  C183 302 175 298 174 296  C173 294 196 263 199 263  L200 263  L200 262  C200 261 192 255 191 255  L190 255  L190 257  C190 258 188 261 179 273  C172 282 159 303 159 305  L159 305  L161 305  C164 305 203 328 204 330  C205 331 205 332 206 332  C206 332 207 329 209 326  Z  M810 325  C812 324 819 320 827 316  C837 310 842 308 843 308  L845 309  L845 308  C845 308 843 304 840 300  L836 293  L835 294  C835 295 830 299 824 304  C810 312 805 315 801 315  C796 315 790 310 785 301  C782 294 782 292 786 288  C789 284 812 267 815 266  L817 265  L812 259  L807 253  L805 255  C803 257 797 262 790 267  C784 273 777 278 775 280  C773 284 773 285 773 291  C773 297 774 299 778 305  C788 324 800 331 810 325  Z  M511 267  C509 265 504 258 499 253  C491 246 488 243 481 240  C463 231 453 229 434 229  C415 229 401 233 385 244  C377 249 363 263 360 268  L358 272  L436 272  L514 272  L511 267  Z  M285 237  C284 236 282 234 281 231  C280 226 280 226 284 222  C289 217 301 209 303 209  C305 209 312 214 312 216  L312 218  L313 218  C313 218 316 216 320 213  L327 209  L321 206  C311 200 302 195 298 193  C296 191 290 188 286 186  C280 183 277 181 276 180  L276 178  L275 178  C275 178 272 180 267 184  L260 189  L262 191  C263 192 265 196 266 206  C269 217 273 237 275 245  L275 247  L281 242  L286 238  L285 237  Z  M730 238  L730 237  L729 237  C728 237 725 235 722 233  C720 231 714 226 709 222  C704 219 700 215 700 214  C700 213 705 205 712 196  C720 184 724 179 725 179  L728 179  L720 174  L713 169  L712 171  C711 174 688 211 686 213  L684 215  L685 216  C686 216 690 219 694 222  C704 228 723 244 723 245  L723 247  L727 243  C728 240 730 238 730 238  Z  M389 181  L396 178  L395 177  C393 175 387 160 388 158  C389 156 403 152 404 153  C412 158 421 167 422 168  L423 171  L430 169  L437 167  L427 159  C421 154 417 150 417 149  C417 149 419 147 421 146  C426 143 429 139 428 132  C428 124 424 120 415 119  C411 118 407 119 397 121  C385 124 371 129 365 132  L363 132  L365 134  C367 137 382 179 382 181  L381 183  L381 183  C381 183 385 182 389 181  Z  M630 178  C630 177 629 175 629 172  L628 168  L627 168  C626 168 625 169 624 170  C622 171 619 171 614 171  C607 171 606 171 599 168  C592 164 589 161 587 156  C583 146 588 135 598 131  C602 130 603 130 609 131  C613 131 618 133 620 134  C625 137 632 143 633 146  L635 149  L640 146  L645 143  L638 136  C629 129 621 125 611 122  C594 119 582 123 577 134  C574 139 574 141 574 147  C574 156 576 160 581 166  C589 175 600 179 618 179  L630 179  L630 178  Z  M329 817  C316 810 314 809 314 807  C314 805 320 796 322 796  C324 796 343 807 345 809  C346 812 346 812 345 815  C343 819 341 821 338 821  C338 821 333 819 329 817  Z  M778 734  C776 730 774 726 774 725  L774 724  L776 724  C778 724 792 728 793 729  L794 730  L789 736  C786 740 783 743 783 743  C782 743 780 739 778 734  Z  M218 757  C213 755 208 750 205 745  C203 742 203 740 203 736  C204 729 208 723 215 720  C223 715 230 716 237 722  C244 729 246 737 242 745  C236 755 226 760 218 757  Z  M168 638  C165 636 159 622 157 616  L157 613  L161 611  C163 611 166 610 168 610  L171 610  L174 616  C180 630 180 632 179 635  C177 637 173 640 171 640  C171 640 169 639 168 638  Z  M682 554  C681 554 679 553 676 553  C670 552 664 548 660 542  C658 538 657 537 658 535  C659 534 659 532 659 531  C659 529 665 523 669 522  L671 521  L671 519  C671 518 671 516 670 514  C669 510 671 503 674 500  C676 497 682 495 686 495  C690 495 699 500 699 502  C699 503 708 513 709 513  C710 513 712 514 714 516  C716 517 719 518 721 518  L725 518  L725 517  L726 516  L728 516  L731 517  L731 520  C731 521 730 524 729 527  C726 531 718 541 716 541  C716 541 714 542 714 543  C713 544 711 545 711 545  C710 545 709 546 708 546  C707 548 697 552 690 554  C686 555 682 555 682 554  Z  M845 432  C842 430 841 428 838 416  C836 407 835 404 836 403  C838 402 846 399 848 399  L850 399  L851 403  C853 412 856 424 856 426  C856 431 849 435 845 432  Z  M867 425  C865 423 864 419 862 411  C860 405 859 399 859 398  L859 396  L862 395  C863 394 866 394 868 393  L871 393  L872 397  C873 400 874 405 875 408  C878 418 878 423 875 425  C872 428 869 427 867 425  Z  M278 214  C277 212 275 201 275 197  L275 194  L276 194  C277 194 294 204 294 205  C294 205 282 214 280 215  L279 215  L278 214  Z  M383 145  C382 144 382 141 382 139  L382 135  L394 131  C401 129 408 127 409 127  C412 127 416 131 416 134  C416 136 415 138 414 139  C412 141 389 148 386 148  L384 148  L383 145  Z  " />
  <path fill="#2823b4" stroke="none" d=" M0 500  L0 0  L500 0  L1000 0  L1000 500  L1000 1000  L500 1000  L0 1000  L0 500  Z  M442 886  C441 885 442 879 444 864  C445 852 447 842 448 842  C448 841 452 841 458 842  C463 843 468 843 468 843  C468 843 469 840 469 838  L470 833  L468 834  C468 835 465 835 461 834  C452 833 428 829 424 827  L420 826  L419 826  C419 827 417 834 417 835  L417 836  L418 835  C420 835 435 838 436 840  C437 841 430 881 428 883  L427 885  L431 886  C433 886 436 887 438 887  C440 887 442 888 442 888  L443 888  L442 886  Z  M578 885  C582 884 586 881 588 879  C592 875 592 875 592 868  C591 864 590 854 588 846  C586 837 584 829 584 828  L585 826  L583 826  C582 827 579 827 577 828  L572 829  L572 830  C572 830 573 831 573 833  C575 838 580 859 580 866  C580 870 580 871 578 874  C574 878 565 880 559 880  C553 879 550 876 548 871  C547 865 544 838 545 836  L545 834  L541 835  C538 835 536 835 534 836  L532 836  L532 837  C533 838 534 846 535 855  C537 886 540 888 561 888  C568 887 573 887 578 885  Z  M340 856  C339 854 335 836 335 832  L335 830  L341 830  C349 830 352 829 355 822  C359 813 357 806 349 801  C347 799 344 798 344 798  C343 798 337 794 330 790  C323 786 316 782 316 782  L315 782  L315 784  C314 787 290 824 288 826  L286 828  L291 831  C294 833 297 835 298 835  L299 835  L299 833  C299 831 307 816 309 816  C310 816 313 818 317 820  C324 824 324 824 325 832  C326 837 326 843 326 846  C327 851 327 851 333 854  C336 856 339 857 340 857  L341 857  L340 856  Z  M697 841  C705 837 714 830 719 822  C721 818 723 815 723 815  L723 814  L722 814  C720 814 712 803 712 801  L712 799  L712 799  C712 799 707 802 701 806  C696 809 690 812 689 813  L686 813  L686 814  C686 814 687 816 689 819  L691 823  L692 822  C693 820 704 812 706 812  C708 812 710 816 710 819  C710 821 700 830 695 833  C690 835 681 836 677 834  C671 830 666 823 666 815  C666 808 668 804 673 800  C679 794 692 791 695 794  L696 795  L696 795  C697 794 696 783 695 782  L694 782  L693 783  C692 783 689 784 685 785  C678 786 668 791 663 797  C661 799 658 803 656 806  C650 820 657 838 671 844  C673 845 677 845 683 845  C689 844 692 844 697 841  Z  M548 792  L557 792  L557 789  C557 785 552 766 551 765  C550 764 550 763 550 762  C550 761 548 757 546 753  C543 750 540 743 538 740  C536 736 534 733 534 732  C533 732 533 730 533 727  L533 723  L530 722  C528 721 471 721 468 722  L467 722  L467 725  C467 730 465 736 461 743  C452 758 445 774 444 785  L444 792  L454 792  C474 793 539 793 548 792  Z  M792 763  C790 763 786 756 786 753  C786 752 799 735 803 732  C804 730 814 733 815 735  L815 737  L816 737  C817 737 817 736 818 735  C819 734 821 730 823 728  C825 725 827 722 827 722  L827 721  L825 722  C820 723 775 714 771 711  L768 709  L765 713  C763 715 761 717 760 718  L759 720  L761 721  C762 722 763 725 765 727  C767 733 777 758 780 768  L783 775  L788 769  L794 764  L792 763  Z  M235 767  C242 765 250 758 252 750  C256 739 253 726 243 716  C236 709 231 707 221 707  C212 707 206 709 200 716  C188 728 192 750 208 762  C217 769 225 770 235 767  Z  M535 713  C535 710 536 707 537 705  C538 703 558 684 562 681  C566 679 582 663 586 657  C587 656 589 652 590 650  L592 646  L592 646  C592 646 547 646 492 646  L392 646  L397 649  C402 652 414 660 420 664  C422 665 423 666 424 666  C424 666 425 667 426 668  C427 669 430 671 433 673  C440 677 459 696 463 702  C466 706 466 707 466 713  L466 719  L500 719  L533 719  L535 713  Z  M648 665  C649 665 653 663 657 662  C666 660 687 649 687 647  L687 646  L663 646  C640 645 640 645 632 652  C628 655 624 659 623 661  L622 663  L623 665  C624 666 627 666 635 666  C641 666 647 666 648 665  Z  M871 641  C873 635 876 627 877 625  C878 623 880 618 880 615  C881 611 883 608 883 607  L884 606  L879 605  C877 604 874 603 874 603  L873 603  L874 605  C874 607 863 640 861 641  C860 641 827 629 822 625  L818 623  L816 629  C815 632 814 635 814 635  L814 636  L816 635  C818 635 862 655 863 657  L863 658  L865 656  C865 654 868 648 871 641  Z  M182 649  C186 646 189 641 189 636  C189 634 187 627 185 621  C183 615 180 607 178 603  C177 598 176 594 175 594  L175 594  L173 596  C170 598 127 611 124 611  L123 610  L123 611  C123 612 124 615 125 619  L127 625  L129 624  C131 622 144 617 147 617  L149 617  L150 619  C152 626 159 642 160 644  C165 651 174 653 182 649  Z  M592 642  C592 640 593 637 594 635  C594 632 594 629 595 627  C595 625 596 620 597 617  C599 607 601 601 605 593  C610 584 615 580 629 577  C640 574 653 583 659 597  C661 600 661 603 661 608  C660 617 656 626 647 639  L645 642  L645 643  C646 644 687 644 690 643  C692 642 695 640 698 637  C701 634 704 632 704 632  C704 632 706 630 707 628  C709 625 709 623 709 616  C709 608 709 606 706 601  C703 594 693 584 687 581  C685 580 683 579 682 578  C680 577 673 575 663 573  C660 572 630 572 587 572  C503 573 518 573 456 572  C405 572 405 572 397 580  C392 585 388 589 388 590  C387 591 383 595 378 599  C374 603 370 607 370 608  C370 609 372 611 374 613  C376 616 377 618 377 621  C377 625 380 632 382 636  C383 637 386 640 388 641  C391 644 391 644 491 644  C590 644 590 644 592 642  Z  M722 612  C729 602 737 586 740 575  C744 564 746 558 746 556  C746 555 747 551 747 547  C750 528 747 505 741 492  C740 489 738 485 737 483  C732 471 725 464 710 458  C703 455 693 454 686 457  C671 461 661 470 660 482  C659 489 657 490 650 488  C640 484 628 488 617 496  C608 503 606 510 606 524  C606 531 606 533 608 536  C609 537 610 539 610 541  C612 546 632 561 636 561  C637 561 638 561 638 562  C639 562 641 563 644 563  C647 564 651 565 653 565  C656 566 659 567 662 567  C671 569 679 571 685 575  C701 583 706 588 711 598  C713 604 714 606 714 611  C714 621 715 621 722 612  Z  M473 492  C474 491 474 490 473 488  C472 484 471 466 471 443  C471 433 470 425 470 424  L470 423  L439 423  L408 423  L408 424  C408 424 409 426 411 427  C414 430 415 430 418 429  C421 429 423 429 424 430  C426 433 431 462 433 482  C433 487 433 492 434 493  L434 494  L453 494  C468 494 472 494 473 492  Z  M615 491  C617 489 623 486 627 484  C632 482 635 482 643 482  C653 482 655 481 655 477  C655 474 659 468 664 463  C673 453 689 449 705 452  C709 452 713 453 713 453  L714 453  L714 451  C714 450 712 447 710 444  C707 442 705 440 705 439  C704 439 700 435 695 431  C687 423 687 423 624 423  C562 423 562 423 558 425  C555 427 546 436 543 441  C536 450 531 468 532 481  C533 495 529 494 573 494  C610 494 610 494 615 491  Z  M156 442  C169 436 176 416 173 396  L172 388  L170 388  C167 388 158 385 156 383  L154 382  L154 382  C154 385 146 408 145 409  L144 411  L145 411  C146 412 148 412 150 413  L154 414  L154 409  C155 406 155 402 156 400  L157 396  L160 396  C165 396 166 400 166 407  C165 411 164 416 163 418  C160 430 147 437 137 433  C133 431 128 426 126 422  C124 417 125 409 127 402  C129 397 135 390 138 389  L139 388  L136 384  C133 381 131 379 131 379  C130 379 123 391 120 396  C118 403 116 415 116 422  C117 429 121 437 125 441  C134 447 146 448 156 442  Z  M856 443  C858 442 859 441 860 438  L861 435  L862 435  C863 435 864 436 866 437  C873 441 882 439 885 433  C887 426 886 417 878 389  L875 376  L873 378  C871 379 828 393 825 393  L823 393  L825 398  C825 400 828 409 830 417  C834 437 836 441 843 444  C847 445 852 445 856 443  Z  M471 420  C473 419 474 408 475 393  C475 382 475 382 472 376  C468 368 467 365 464 363  C463 361 462 360 462 359  L462 358  L461 358  C461 358 459 355 457 352  C454 347 454 347 412 347  L371 347  L371 348  C371 349 376 352 381 356  C387 359 392 363 392 365  C394 367 393 369 384 379  C380 383 376 387 375 389  C373 391 371 394 368 397  C366 400 364 403 364 404  L364 406  L368 405  C372 405 385 399 392 396  C394 395 397 394 398 394  L400 395  L400 404  C400 412 400 414 402 418  C404 422 404 422 437 421  C458 421 471 421 471 420  Z  M680 418  C678 416 674 414 671 412  C667 411 664 409 663 409  C662 408 658 407 654 406  C651 405 646 404 645 403  C631 399 596 403 581 410  C578 412 575 413 575 413  C574 413 564 419 562 420  L562 421  L623 421  L684 421  L680 418  Z  M509 387  C517 382 525 367 527 353  L527 347  L513 347  L499 347  L499 348  C499 349 500 352 501 355  C503 360 503 363 503 375  L502 388  L504 388  C505 388 507 387 509 387  Z  M450 345  C452 345 453 344 454 341  C455 336 459 333 467 332  C478 330 488 333 496 342  C499 346 499 346 512 346  L526 346  L527 343  C529 340 528 315 526 306  C524 299 520 288 518 280  C516 277 515 276 513 275  C511 274 485 274 433 274  L357 274  L356 276  C356 277 355 280 353 284  C348 296 347 315 352 324  C353 327 356 331 359 334  C361 338 363 341 363 341  C363 342 369 345 372 345  C376 346 447 346 450 345  Z  M209 326  C212 321 226 301 231 294  C232 292 234 291 235 291  L236 291  L236 290  C236 290 234 288 232 286  L228 283  L227 285  C227 286 226 288 225 289  C222 292 218 298 212 307  C209 311 206 314 205 315  C204 315 193 309 193 307  C193 306 202 293 206 289  L208 286  L205 283  C203 281 201 280 201 280  C201 280 197 285 193 291  C189 297 185 302 184 302  C183 302 175 298 174 296  C173 294 196 263 199 263  L200 263  L200 262  C200 261 192 255 191 255  L190 255  L190 257  C190 258 188 261 179 273  C172 282 159 303 159 305  L159 305  L161 305  C164 305 203 328 204 330  C205 331 205 332 206 332  C206 332 207 329 209 326  Z  M810 325  C812 324 819 320 827 316  C837 310 842 308 843 308  L845 309  L845 308  C845 308 843 304 840 300  L836 293  L835 294  C835 295 830 299 824 304  C810 312 805 315 801 315  C796 315 790 310 785 301  C782 294 782 292 786 288  C789 284 812 267 815 266  L817 265  L812 259  L807 253  L805 255  C803 257 797 262 790 267  C784 273 777 278 775 280  C773 284 773 285 773 291  C773 297 774 299 778 305  C788 324 800 331 810 325  Z  M511 267  C509 265 504 258 499 253  C491 246 488 243 481 240  C463 231 453 229 434 229  C415 229 401 233 385 244  C377 249 363 263 360 268  L358 272  L436 272  L514 272  L511 267  Z  M285 237  C284 236 282 234 281 231  C280 226 280 226 284 222  C289 217 301 209 303 209  C305 209 312 214 312 216  L312 218  L313 218  C313 218 316 216 320 213  L327 209  L321 206  C311 200 302 195 298 193  C296 191 290 188 286 186  C280 183 277 181 276 180  L276 178  L275 178  C275 178 272 180 267 184  L260 189  L262 191  C263 192 265 196 266 206  C269 217 273 237 275 245  L275 247  L281 242  L286 238  L285 237  Z  M730 238  L730 237  L729 237  C728 237 725 235 722 233  C720 231 714 226 709 222  C704 219 700 215 700 214  C700 213 705 205 712 196  C720 184 724 179 725 179  L728 179  L720 174  L713 169  L712 171  C711 174 688 211 686 213  L684 215  L685 216  C686 216 690 219 694 222  C704 228 723 244 723 245  L723 247  L727 243  C728 240 730 238 730 238  Z  M389 181  L396 178  L395 177  C393 175 387 160 388 158  C389 156 403 152 404 153  C412 158 421 167 422 168  L423 171  L430 169  L437 167  L427 159  C421 154 417 150 417 149  C417 149 419 147 421 146  C426 143 429 139 428 132  C428 124 424 120 415 119  C411 118 407 119 397 121  C385 124 371 129 365 132  L363 132  L365 134  C367 137 382 179 382 181  L381 183  L381 183  C381 183 385 182 389 181  Z  M630 178  C630 177 629 175 629 172  L628 168  L627 168  C626 168 625 169 624 170  C622 171 619 171 614 171  C607 171 606 171 599 168  C592 164 589 161 587 156  C583 146 588 135 598 131  C602 130 603 130 609 131  C613 131 618 133 620 134  C625 137 632 143 633 146  L635 149  L640 146  L645 143  L638 136  C629 129 621 125 611 122  C594 119 582 123 577 134  C574 139 574 141 574 147  C574 156 576 160 581 166  C589 175 600 179 618 179  L630 179  L630 178  Z  M329 817  C316 810 314 809 314 807  C314 805 320 796 322 796  C324 796 343 807 345 809  C346 812 346 812 345 815  C343 819 341 821 338 821  C338 821 333 819 329 817  Z  M778 734  C776 730 774 726 774 725  L774 724  L776 724  C778 724 792 728 793 729  L794 730  L789 736  C786 740 783 743 783 743  C782 743 780 739 778 734  Z  M218 757  C213 755 208 750 205 745  C203 742 203 740 203 736  C204 729 208 723 215 720  C223 715 230 716 237 722  C244 729 246 737 242 745  C236 755 226 760 218 757  Z  M168 638  C165 636 159 622 157 616  L157 613  L161 611  C163 611 166 610 168 610  L171 610  L174 616  C180 630 180 632 179 635  C177 637 173 640 171 640  C171 640 169 639 168 638  Z  M682 554  C681 554 679 553 676 553  C670 552 664 548 660 542  C658 538 657 537 658 535  C659 534 659 532 659 531  C659 529 665 523 669 522  L671 521  L671 519  C671 518 671 516 670 514  C669 510 671 503 674 500  C676 497 682 495 686 495  C690 495 699 500 699 502  C699 503 708 513 709 513  C710 513 712 514 714 516  C716 517 719 518 721 518  L725 518  L725 517  L726 516  L728 516  L731 517  L731 520  C731 521 730 524 729 527  C726 531 718 541 716 541  C716 541 714 542 714 543  C713 544 711 545 711 545  C710 545 709 546 708 546  C707 548 697 552 690 554  C686 555 682 555 682 554  Z  M845 432  C842 430 841 428 838 416  C836 407 835 404 836 403  C838 402 846 399 848 399  L850 399  L851 403  C853 412 856 424 856 426  C856 431 849 435 845 432  Z  M867 425  C865 423 864 419 862 411  C860 405 859 399 859 398  L859 396  L862 395  C863 394 866 394 868 393  L871 393  L872 397  C873 400 874 405 875 408  C878 418 878 423 875 425  C872 428 869 427 867 425  Z  M278 214  C277 212 275 201 275 197  L275 194  L276 194  C277 194 294 204 294 205  C294 205 282 214 280 215  L279 215  L278 214  Z  M383 145  C382 144 382 141 382 139  L382 135  L394 131  C401 129 408 127 409 127  C412 127 416 131 416 134  C416 136 415 138 414 139  C412 141 389 148 386 148  L384 148  L383 145  Z  " />
  <path fill="#5f5456" stroke="none" d=" M0 500  L0 0  L500 0  L1000 0  L1000 500  L1000 1000  L500 1000  L0 1000  L0 500  Z  M442 886  C441 885 442 879 444 864  C445 852 447 842 448 842  C448 841 452 841 458 842  C463 843 468 843 468 843  C468 843 469 840 469 838  L470 833  L468 834  C468 835 465 835 461 834  C452 833 428 829 424 827  L420 826  L419 826  C419 827 417 834 417 835  L417 836  L418 835  C420 835 435 838 436 840  C437 841 430 881 428 883  L427 885  L431 886  C433 886 436 887 438 887  C440 887 442 888 442 888  L443 888  L442 886  Z  M578 885  C582 884 586 881 588 879  C592 875 592 875 592 868  C591 864 590 854 588 846  C586 837 584 829 584 828  L585 826  L583 826  C582 827 579 827 577 828  L572 829  L572 830  C572 830 573 831 573 833  C575 838 580 859 580 866  C580 870 580 871 578 874  C574 878 565 880 559 880  C553 879 550 876 548 871  C547 865 544 838 545 836  L545 834  L541 835  C538 835 536 835 534 836  L532 836  L532 837  C533 838 534 846 535 855  C537 886 540 888 561 888  C568 887 573 887 578 885  Z  M340 856  C339 854 335 836 335 832  L335 830  L341 830  C349 830 352 829 355 822  C359 813 357 806 349 801  C347 799 344 798 344 798  C343 798 337 794 330 790  C323 786 316 782 316 782  L315 782  L315 784  C314 787 290 824 288 826  L286 828  L291 831  C294 833 297 835 298 835  L299 835  L299 833  C299 831 307 816 309 816  C310 816 313 818 317 820  C324 824 324 824 325 832  C326 837 326 843 326 846  C327 851 327 851 333 854  C336 856 339 857 340 857  L341 857  L340 856  Z  M697 841  C705 837 714 830 719 822  C721 818 723 815 723 815  L723 814  L722 814  C720 814 712 803 712 801  L712 799  L712 799  C712 799 707 802 701 806  C696 809 690 812 689 813  L686 813  L686 814  C686 814 687 816 689 819  L691 823  L692 822  C693 820 704 812 706 812  C708 812 710 816 710 819  C710 821 700 830 695 833  C690 835 681 836 677 834  C671 830 666 823 666 815  C666 808 668 804 673 800  C679 794 692 791 695 794  L696 795  L696 795  C697 794 696 783 695 782  L694 782  L693 783  C692 783 689 784 685 785  C678 786 668 791 663 797  C661 799 658 803 656 806  C650 820 657 838 671 844  C673 845 677 845 683 845  C689 844 692 844 697 841  Z  M559 790  C559 788 559 785 558 783  C558 780 557 776 556 774  C556 771 554 767 553 764  C551 759 550 758 541 741  C538 735 536 730 536 729  C536 727 535 725 535 723  C533 720 533 718 534 713  C535 710 536 707 537 705  C538 703 558 684 562 681  C566 679 582 663 586 657  C587 656 589 652 590 650  C591 648 592 645 593 644  C595 641 596 635 598 622  C600 605 604 594 610 588  C614 584 621 580 624 580  C625 580 628 579 630 579  C636 577 647 582 652 589  C657 596 659 600 659 607  C659 616 654 628 643 641  L640 644  L640 644  L641 644  L633 651  C629 655 624 659 623 661  L622 663  L623 665  C624 666 627 666 635 666  C641 666 647 666 648 665  C649 665 653 663 657 662  C665 660 684 650 687 647  C687 647 689 646 690 645  C693 645 708 631 711 626  C713 624 713 622 712 613  C711 606 711 602 708 598  C706 592 698 584 696 584  C696 584 695 583 694 582  C693 581 689 579 681 575  C675 572 667 570 665 570  C663 571 604 571 533 571  C403 571 403 571 385 589  C376 599 367 608 367 608  C367 609 369 612 371 614  C374 617 375 620 375 622  C375 627 379 636 383 640  C384 641 389 645 393 647  C397 649 404 654 409 656  C416 661 419 663 424 666  C425 667 428 669 430 671  C433 672 436 675 438 677  C444 681 463 701 465 705  C466 708 466 711 465 720  C464 732 464 733 453 753  C448 763 443 777 442 786  L442 794  L500 794  L559 794  L559 790  Z  M792 763  C790 763 786 756 786 753  C786 752 799 735 803 732  C804 730 814 733 815 735  L815 737  L816 737  C817 737 817 736 818 735  C819 734 821 730 823 728  C825 725 827 722 827 722  L827 721  L825 722  C820 723 775 714 771 711  L768 709  L765 713  C763 715 761 717 760 718  L759 720  L761 721  C762 722 763 725 765 727  C767 733 777 758 780 768  L783 775  L788 769  L794 764  L792 763  Z  M235 767  C242 765 250 758 252 750  C256 739 253 726 243 716  C236 709 231 707 221 707  C212 707 206 709 200 716  C188 728 192 750 208 762  C217 769 225 770 235 767  Z  M871 641  C873 635 876 627 877 625  C878 623 880 618 880 615  C881 611 883 608 883 607  L884 606  L879 605  C877 604 874 603 874 603  L873 603  L874 605  C874 607 863 640 861 641  C860 641 827 629 822 625  L818 623  L816 629  C815 632 814 635 814 635  L814 636  L816 635  C818 635 862 655 863 657  L863 658  L865 656  C865 654 868 648 871 641  Z  M182 649  C186 646 189 641 189 636  C189 634 187 627 185 621  C183 615 180 607 178 603  C177 598 176 594 175 594  L175 594  L173 596  C170 598 127 611 124 611  L123 610  L123 611  C123 612 124 615 125 619  L127 625  L129 624  C131 622 144 617 147 617  L149 617  L150 619  C152 626 159 642 160 644  C165 651 174 653 182 649  Z  M722 612  C729 602 737 586 740 575  C744 564 746 558 746 556  C746 555 747 551 747 547  C750 528 747 505 741 492  C740 489 738 485 737 483  C732 471 725 464 710 458  C703 455 693 454 686 457  C671 461 661 470 660 482  C659 489 657 490 650 488  C640 484 628 488 617 496  C608 503 606 510 606 524  C606 531 606 533 608 536  C609 537 610 539 610 541  C612 546 632 561 636 561  C637 561 638 561 638 562  C639 562 641 563 644 563  C647 564 651 565 653 565  C656 566 659 567 662 567  C671 569 679 571 685 575  C701 583 706 588 711 598  C713 604 714 606 714 611  C714 621 715 621 722 612  Z  M474 482  C474 475 473 468 473 467  C472 465 472 421 473 412  C474 408 474 399 475 393  C475 382 475 382 472 376  C468 368 467 365 464 363  C463 361 462 360 462 359  C462 359 462 358 461 358  C459 357 455 349 455 346  C455 337 461 334 473 334  C479 334 481 334 486 336  C489 338 492 340 493 342  C494 343 496 345 497 347  C498 348 500 352 501 355  C503 360 503 363 503 375  L502 388  L504 388  C513 388 524 371 527 353  C527 350 528 346 529 345  C530 342 531 318 529 318  C529 317 528 314 528 310  C527 300 518 272 515 272  C514 272 513 270 511 267  C509 264 503 258 498 253  C491 246 488 243 481 240  C463 231 453 229 434 229  C419 229 408 231 395 238  C384 244 369 256 364 264  C362 266 359 269 358 271  C352 278 347 293 347 306  C347 317 349 323 354 332  C357 337 367 348 368 348  C371 348 391 362 392 365  C394 367 393 369 384 379  C380 383 376 387 375 389  C373 391 371 394 368 397  C366 400 364 403 364 404  L364 406  L368 405  C372 405 385 399 392 396  C394 395 397 394 398 394  L400 395  L400 404  C400 412 400 414 402 417  C403 419 404 422 404 422  C404 424 410 429 413 431  C414 432 417 432 419 431  L423 431  L423 434  C424 438 426 446 427 451  C428 456 430 471 431 484  C431 489 431 494 432 495  L432 496  L453 496  L475 496  L474 482  Z  M617 493  C621 490 633 485 638 484  C641 484 645 484 648 485  C655 486 656 486 657 480  C660 468 671 458 687 454  C696 452 703 453 714 457  C717 459 720 460 721 460  L722 460  L722 459  C722 454 699 430 688 422  L685 420  L684 420  L684 421  L680 418  C678 417 674 414 670 412  C667 411 664 409 663 409  C662 408 658 407 654 406  C651 405 646 404 645 403  C631 399 596 403 581 410  C578 412 575 413 575 413  C574 413 572 414 570 415  C568 417 563 419 560 421  C553 425 551 427 545 435  C538 443 533 454 532 461  C532 464 531 466 531 467  C530 467 530 472 530 478  C530 498 526 496 574 496  C614 496 614 496 617 493  Z  M156 442  C169 436 176 416 173 396  L172 388  L170 388  C167 388 158 385 156 383  L154 382  L154 382  C154 385 146 408 145 409  L144 411  L145 411  C146 412 148 412 150 413  L154 414  L154 409  C155 406 155 402 156 400  L157 396  L160 396  C165 396 166 400 166 407  C165 411 164 416 163 418  C160 430 147 437 137 433  C133 431 128 426 126 422  C124 417 125 409 127 402  C129 397 135 390 138 389  L139 388  L136 384  C133 381 131 379 131 379  C130 379 123 391 120 396  C118 403 116 415 116 422  C117 429 121 437 125 441  C134 447 146 448 156 442  Z  M856 443  C858 442 859 441 860 438  L861 435  L862 435  C863 435 864 436 866 437  C873 441 882 439 885 433  C887 426 886 417 878 389  L875 376  L873 378  C871 379 828 393 825 393  L823 393  L825 398  C825 400 828 409 830 417  C834 437 836 441 843 444  C847 445 852 445 856 443  Z  M209 326  C212 321 226 301 231 294  C232 292 234 291 235 291  L236 291  L236 290  C236 290 234 288 232 286  L228 283  L227 285  C227 286 226 288 225 289  C222 292 218 298 212 307  C209 311 206 314 205 315  C204 315 193 309 193 307  C193 306 202 293 206 289  L208 286  L205 283  C203 281 201 280 201 280  C201 280 197 285 193 291  C189 297 185 302 184 302  C183 302 175 298 174 296  C173 294 196 263 199 263  L200 263  L200 262  C200 261 192 255 191 255  L190 255  L190 257  C190 258 188 261 179 273  C172 282 159 303 159 305  L159 305  L161 305  C164 305 203 328 204 330  C205 331 205 332 206 332  C206 332 207 329 209 326  Z  M810 325  C812 324 819 320 827 316  C837 310 842 308 843 308  L845 309  L845 308  C845 308 843 304 840 300  L836 293  L835 294  C835 295 830 299 824 304  C810 312 805 315 801 315  C796 315 790 310 785 301  C782 294 782 292 786 288  C789 284 812 267 815 266  L817 265  L812 259  L807 253  L805 255  C803 257 797 262 790 267  C784 273 777 278 775 280  C773 284 773 285 773 291  C773 297 774 299 778 305  C788 324 800 331 810 325  Z  M285 237  C284 236 282 234 281 231  C280 226 280 226 284 222  C289 217 301 209 303 209  C305 209 312 214 312 216  L312 218  L313 218  C313 218 316 216 320 213  L327 209  L321 206  C311 200 302 195 298 193  C296 191 290 188 286 186  C280 183 277 181 276 180  L276 178  L275 178  C275 178 272 180 267 184  L260 189  L262 191  C263 192 265 196 266 206  C269 217 273 237 275 245  L275 247  L281 242  L286 238  L285 237  Z  M730 238  L730 237  L729 237  C728 237 725 235 722 233  C720 231 714 226 709 222  C704 219 700 215 700 214  C700 213 705 205 712 196  C720 184 724 179 725 179  L728 179  L720 174  L713 169  L712 171  C711 174 688 211 686 213  L684 215  L685 216  C686 216 690 219 694 222  C704 228 723 244 723 245  L723 247  L727 243  C728 240 730 238 730 238  Z  M389 181  L396 178  L395 177  C393 175 387 160 388 158  C389 156 403 152 404 153  C412 158 421 167 422 168  L423 171  L430 169  L437 167  L427 159  C421 154 417 150 417 149  C417 149 419 147 421 146  C426 143 429 139 428 132  C428 124 424 120 415 119  C411 118 407 119 397 121  C385 124 371 129 365 132  L363 132  L365 134  C367 137 382 179 382 181  L381 183  L381 183  C381 183 385 182 389 181  Z  M630 178  C630 177 629 175 629 172  L628 168  L627 168  C626 168 625 169 624 170  C622 171 619 171 614 171  C607 171 606 171 599 168  C592 164 589 161 587 156  C583 146 588 135 598 131  C602 130 603 130 609 131  C613 131 618 133 620 134  C625 137 632 143 633 146  L635 149  L640 146  L645 143  L638 136  C629 129 621 125 611 122  C594 119 582 123 577 134  C574 139 574 141 574 147  C574 156 576 160 581 166  C589 175 600 179 618 179  L630 179  L630 178  Z  M329 817  C316 810 314 809 314 807  C314 805 320 796 322 796  C324 796 343 807 345 809  C346 812 346 812 345 815  C343 819 341 821 338 821  C338 821 333 819 329 817  Z  M778 734  C776 730 774 726 774 725  L774 724  L776 724  C778 724 792 728 793 729  L794 730  L789 736  C786 740 783 743 783 743  C782 743 780 739 778 734  Z  M218 757  C213 755 208 750 205 745  C203 742 203 740 203 736  C204 729 208 723 215 720  C223 715 230 716 237 722  C244 729 246 737 242 745  C236 755 226 760 218 757  Z  M168 638  C165 636 159 622 157 616  L157 613  L161 611  C163 611 166 610 168 610  L171 610  L174 616  C180 630 180 632 179 635  C177 637 173 640 171 640  C171 640 169 639 168 638  Z  M682 554  C681 554 679 553 676 553  C670 552 664 548 660 542  C658 538 657 537 658 535  C659 534 659 532 659 531  C659 529 665 523 669 522  L671 521  L671 519  C671 518 671 516 670 514  C669 510 671 503 674 500  C676 497 682 495 686 495  C690 495 699 500 699 502  C699 503 708 513 709 513  C710 513 712 514 714 516  C716 517 719 518 721 518  L725 518  L725 517  L726 516  L728 516  L731 517  L731 520  C731 521 730 524 729 527  C726 531 718 541 716 541  C716 541 714 542 714 543  C713 544 711 545 711 545  C710 545 709 546 708 546  C707 548 697 552 690 554  C686 555 682 555 682 554  Z  M845 432  C842 430 841 428 838 416  C836 407 835 404 836 403  C838 402 846 399 848 399  L850 399  L851 403  C853 412 856 424 856 426  C856 431 849 435 845 432  Z  M867 425  C865 423 864 419 862 411  C860 405 859 399 859 398  L859 396  L862 395  C863 394 866 394 868 393  L871 393  L872 397  C873 400 874 405 875 408  C878 418 878 423 875 425  C872 428 869 427 867 425  Z  M278 214  C277 212 275 201 275 197  L275 194  L276 194  C277 194 294 204 294 205  C294 205 282 214 280 215  L279 215  L278 214  Z  M383 145  C382 144 382 141 382 139  L382 135  L394 131  C401 129 408 127 409 127  C412 127 416 131 416 134  C416 136 415 138 414 139  C412 141 389 148 386 148  L384 148  L383 145  Z  " />
  <path fill="#f8f217" stroke="none" d=" M0 500  L0 0  L500 0  L1000 0  L1000 500  L1000 1000  L500 1000  L0 1000  L0 500  Z  M444 888  C444 887 444 886 443 885  C442 883 447 845 449 843  C450 842 465 844 467 845  L468 846  L469 846  C469 845 471 833 470 832  L470 831  L468 832  C467 834 465 834 461 833  C454 833 430 828 425 827  L421 826  L421 825  L421 824  L420 824  C419 825 415 837 416 837  L416 838  L418 837  C419 836 433 839 435 840  C436 842 429 881 426 883  L425 885  L426 885  C428 886 441 889 443 889  L444 889  L444 888  Z  M578 886  C582 884 586 882 589 879  C593 875 593 875 593 868  C592 864 591 854 589 846  C586 836 585 830 586 828  L586 825  L586 825  C584 825 571 828 571 829  L570 830  L571 831  C573 833 573 833 576 849  C580 865 580 870 577 873  C576 875 573 876 570 877  C559 881 551 878 549 871  C547 864 545 837 546 835  L547 834  L546 834  C545 833 531 835 530 835  L530 836  L531 837  C531 838 533 846 533 855  C534 864 536 874 537 877  C538 882 542 886 547 888  C551 890 570 889 578 886  Z  M342 856  C340 855 336 837 336 833  L336 831  L342 831  C349 831 353 829 356 823  C361 812 357 804 345 797  C342 796 335 792 328 788  C321 783 315 780 315 780  L314 780  L314 783  C313 787 289 825 286 826  L284 826  L284 827  C284 828 298 837 299 837  L300 837  L300 834  C300 831 307 817 309 817  C310 817 313 819 316 821  C323 824 323 824 323 830  C324 833 325 838 325 841  C326 846 326 847 325 848  C325 849 324 850 324 850  C324 851 341 859 342 858  L343 858  L342 856  Z  M697 842  C701 840 707 836 710 833  C716 828 724 817 724 814  L724 813  L722 813  C720 813 713 803 713 800  L713 798  L712 798  C711 798 710 799 709 799  C705 803 689 812 687 812  L685 812  L685 813  C685 815 690 824 692 824  L693 824  L693 823  C693 821 705 813 707 813  C707 814 708 815 709 816  C710 822 697 833 688 834  C681 834 678 834 674 830  C670 827 667 821 667 815  C667 808 669 804 674 800  C680 795 692 792 695 795  L696 796  L697 796  C698 795 697 786 696 782  L695 780  L693 781  C692 782 689 783 685 784  C673 786 661 795 655 806  C649 821 656 839 671 845  C673 846 677 846 683 846  C689 845 692 845 697 842  Z  M559 790  C559 788 559 785 558 783  C558 780 557 776 556 774  C556 771 554 767 553 764  C551 759 550 758 541 741  C538 735 536 730 536 728  C536 727 536 725 535 724  C534 722 535 710 538 706  C539 703 552 691 560 684  C569 677 588 658 590 653  C595 642 596 639 598 622  C600 605 604 594 610 588  C614 584 621 580 624 580  C625 580 628 579 630 579  C636 577 647 582 652 589  C657 596 659 600 659 607  C659 612 658 615 655 621  C650 633 646 637 627 655  C621 661 620 663 623 665  C624 667 627 667 636 667  C642 667 648 667 649 666  C650 666 654 664 658 663  C666 661 681 653 686 649  C689 647 691 645 692 645  C693 645 710 629 712 626  C713 624 714 622 716 622  C719 621 736 593 740 580  C742 576 743 573 743 573  C743 572 744 569 745 567  C745 565 746 562 746 561  C748 557 751 526 749 523  C749 521 748 516 748 512  C747 507 747 502 746 502  C745 501 745 500 745 499  C745 497 743 493 737 479  C736 477 732 472 729 469  C726 466 723 461 723 459  C719 450 700 431 684 419  C674 412 671 410 655 405  C644 401 643 401 633 401  C620 400 601 402 588 406  C581 409 564 417 560 420  C558 422 555 425 553 426  C545 432 533 452 532 461  C532 464 531 466 531 467  C530 467 530 472 530 478  C530 498 526 496 574 496  L614 496  L612 499  C606 506 605 510 605 522  C605 531 605 533 607 538  C610 545 618 553 627 558  C630 560 632 561 633 561  C633 561 635 562 636 562  C638 563 642 564 645 565  C648 565 652 566 655 567  C657 567 660 568 662 569  L665 570  L664 570  C664 571 605 571 533 571  C403 571 403 571 385 589  C376 599 367 608 367 608  C367 609 369 612 371 614  C374 618 375 620 375 623  C376 631 380 638 387 644  C393 648 402 654 405 656  C406 656 408 658 410 659  C412 661 415 663 418 664  C420 665 423 667 425 669  C427 670 432 673 435 676  C441 680 460 698 460 699  C460 700 461 702 463 704  C465 707 465 708 465 720  C464 733 465 732 453 753  C448 763 443 777 442 786  L442 794  L500 794  L559 794  L559 790  Z  M789 770  C792 766 795 763 795 762  L795 761  L793 761  L791 762  L789 758  C786 753 786 752 790 748  C791 747 795 742 798 739  C803 733 804 732 806 732  C807 733 810 733 811 734  L814 734  L814 736  L814 738  L815 738  C816 738 818 737 819 735  C820 734 822 730 824 728  C826 725 828 722 828 721  L828 720  L825 721  C822 721 797 717 782 714  C774 712 771 711 770 709  L768 707  L764 712  C762 714 760 717 759 719  L757 721  L759 722  C760 722 762 724 763 726  C767 734 781 772 781 774  C781 775 781 776 781 776  L781 777  L782 777  C782 777 785 774 789 770  Z  M235 768  C242 766 251 758 253 750  C257 738 254 726 244 716  C236 708 231 706 221 706  C212 706 206 708 199 715  C194 720 192 726 192 734  C192 751 210 770 226 770  C228 770 232 769 235 768  Z  M870 644  C874 636 877 627 878 625  C879 623 881 618 881 615  C882 612 884 609 885 608  L887 607  L886 606  C884 605 872 601 872 602  L871 602  L872 604  C873 605 872 609 867 623  L862 640  L860 640  C858 640 823 626 821 624  L819 622  L818 623  C817 623 812 636 812 637  L812 637  L815 637  C817 636 822 638 839 646  C851 652 861 657 862 658  L863 660  L864 659  C864 659 867 652 870 644  Z  M182 649  C187 646 190 641 190 636  C190 634 188 627 186 621  C184 615 181 607 179 603  C178 598 176 594 176 594  L175 593  L173 595  C171 596 162 599 148 603  C130 609 125 610 124 609  L122 608  L122 609  C121 610 126 624 127 625  L128 626  L129 625  C131 623 144 618 147 618  L149 618  L149 619  C149 622 157 642 160 645  C166 653 174 654 182 649  Z  M475 495  C475 494 474 487 474 480  C472 461 472 422 474 413  C476 400 476 384 475 378  C473 373 469 366 463 359  C461 357 460 355 460 355  C460 354 459 352 458 350  C455 346 454 344 457 340  C459 335 463 334 473 334  C480 334 481 334 486 337  C493 340 497 346 500 356  C502 362 502 365 502 376  L501 389  L505 389  C507 389 509 388 513 384  C521 377 526 365 528 351  C530 340 530 320 529 318  C529 316 528 313 528 309  C527 305 526 298 523 292  C517 272 512 264 499 252  C487 240 469 231 453 229  C443 227 425 227 418 229  C412 230 400 234 395 237  C382 243 368 256 360 266  C345 288 343 313 354 332  C359 340 370 351 382 358  C386 360 390 363 391 365  C392 367 390 370 376 385  C366 396 362 404 363 406  L364 407  L368 406  C372 406 380 403 392 397  L397 395  L398 396  C398 396 399 400 399 405  C399 414 401 420 406 426  C411 431 414 432 419 431  L423 431  L423 434  C424 438 426 446 427 451  C428 456 430 471 431 484  C431 489 431 494 432 495  L432 496  L453 496  L474 496  L475 495  Z  M156 443  C166 438 172 427 174 412  C175 405 175 392 173 388  L173 386  L170 386  C167 387 157 384 156 382  L156 380  L155 380  C154 380 152 387 150 394  C147 402 145 408 144 409  C144 410 143 411 143 411  L143 412  L147 413  C149 413 152 414 153 414  L156 415  L156 410  C156 407 156 403 157 401  L158 397  L161 397  C164 397 165 400 165 408  C163 420 159 428 152 431  C142 435 131 431 127 422  C125 417 126 409 128 403  C130 397 136 390 138 390  L140 390  L140 389  C140 387 132 378 131 378  C130 378 129 379 128 381  C128 382 125 387 123 391  C117 400 116 406 116 418  C116 425 116 427 118 432  C123 443 131 447 144 447  C149 446 152 446 156 443  Z  M856 444  C858 443 860 441 861 440  C862 438 862 436 863 436  L863 436  L866 438  C873 442 882 440 885 433  C888 427 887 420 883 403  C877 380 875 375 874 374  L873 374  L873 375  C873 376 873 377 872 378  C869 380 826 392 824 391  L822 391  L822 393  C823 394 825 404 828 415  C831 425 834 435 834 437  C839 445 848 448 856 444  Z  M208 330  C209 327 221 309 229 298  C231 295 234 292 235 292  C236 292 237 292 237 291  L238 290  L233 286  C230 284 227 282 227 282  L226 282  L226 284  C226 286 226 287 225 288  C224 288 217 297 211 307  C208 311 205 314 205 314  C203 314 194 308 194 307  C194 306 203 293 205 290  C206 289 208 288 209 288  C209 288 210 288 210 287  L211 286  L206 282  C203 280 200 278 199 278  L198 278  L198 280  C199 281 186 301 184 301  C182 301 175 296 175 295  C175 294 186 278 192 270  C195 267 198 264 199 264  L201 264  L201 263  C201 261 192 254 190 254  L189 254  L189 256  C189 257 188 260 186 262  C179 270 164 293 160 300  L157 306  L157 306  C157 306 159 306 161 306  C165 307 203 328 204 331  L204 333  L205 333  L207 333  L208 330  Z  M810 326  C812 326 814 325 814 324  C814 324 821 320 828 316  C839 310 842 309 843 310  C844 310 845 311 845 311  L846 311  L846 309  C846 307 837 292 835 292  L834 292  L834 294  C834 295 831 298 822 303  C808 313 805 314 801 314  C797 314 792 310 788 304  C784 297 783 293 786 289  C789 285 813 267 816 267  L818 267  L818 266  C818 266 815 262 812 258  L806 251  L805 251  L805 252  L805 253  C805 254 800 258 792 265  C785 270 778 276 776 279  C772 283 772 284 772 291  C772 297 773 299 777 305  C782 315 790 323 795 326  C799 328 805 329 810 326  Z  M279 245  C281 243 283 241 285 240  C286 239 287 238 287 237  L288 236  L286 236  C284 235 282 232 282 228  C282 225 282 224 291 218  C295 214 300 211 302 210  C305 210 311 214 311 217  L311 219  L312 219  C313 219 329 209 329 208  C329 208 326 207 323 205  C319 203 315 201 313 200  C300 192 294 189 287 186  C282 183 278 181 278 179  C277 178 276 177 276 177  C274 177 259 188 259 190  L259 191  L261 191  C262 192 263 194 265 205  C267 212 269 224 271 231  C272 237 273 244 273 245  L273 248  L274 248  C275 248 277 247 279 245  Z  M732 237  L732 236  L730 236  C728 236 724 233 718 228  C713 224 707 219 705 218  C703 217 701 215 701 214  C701 213 706 205 712 196  C721 183 724 180 726 180  L728 180  L728 179  C728 177 713 168 712 168  L711 168  L711 170  C711 173 687 211 684 212  C683 213 682 214 682 214  C682 214 686 218 691 221  C696 224 705 231 711 236  L722 244  L722 246  C721 246 721 247 722 247  L723 248  L727 243  C730 240 732 237 732 237  Z  M389 182  C393 180 396 179 397 179  L397 178  L395 176  C393 174 389 162 389 159  L389 157  L396 155  C403 153 403 153 408 157  C419 165 420 167 420 169  L421 172  L422 171  C425 171 437 168 438 168  L438 167  L437 166  C434 164 419 151 418 150  L418 149  L422 146  C427 143 429 139 429 133  C429 124 424 119 415 118  C411 117 407 118 395 121  C378 126 362 131 361 133  L361 134  L363 135  C365 135 367 140 373 157  C378 172 381 180 380 182  L380 184  L381 184  C381 184 385 183 389 182  Z  M631 179  C631 178 629 169 628 167  L627 166  L624 168  C622 170 620 170 614 170  C607 170 606 170 599 167  C592 163 590 161 588 156  C584 146 588 136 598 132  C607 129 622 134 630 142  C631 144 633 147 633 148  L633 150  L634 150  C638 148 646 143 646 142  L646 141  L645 141  C644 141 641 138 637 135  C629 128 621 124 611 121  C592 117 578 124 573 140  C571 149 573 159 580 167  C589 177 600 180 618 180  C625 179 631 179 631 179  Z  M333 818  C326 815 315 808 315 807  C315 805 321 797 322 797  C324 797 343 808 344 810  C346 813 342 820 338 820  C338 820 336 819 333 818  Z  M677 552  C667 550 658 541 660 534  C661 528 668 522 673 522  L675 522  L675 521  C675 521 674 520 673 518  C670 515 670 508 673 504  C677 496 687 494 693 498  C694 499 699 504 703 508  C710 516 716 519 722 519  L726 519  L726 518  L727 517  L728 517  L730 518  L730 520  C730 525 723 534 713 542  C701 551 689 554 677 552  Z  M782 741  C782 740 780 736 778 733  L775 726  L775 725  C776 725 786 727 791 729  L793 730  L790 734  C788 736 786 739 785 740  L783 742  L782 741  Z  M218 756  C211 753 204 744 204 739  C204 730 209 723 216 720  C226 715 236 719 241 729  C245 736 243 744 237 751  C232 756 224 758 218 756  Z  M168 638  C166 636 160 623 158 617  L158 614  L162 612  C165 611 167 610 169 610  L171 610  L172 614  C173 617 175 622 176 625  C179 633 179 636 174 638  C171 639 171 639 168 638  Z  M844 430  C843 429 842 426 841 424  C838 411 836 405 837 404  C837 403 848 400 849 401  C850 402 855 423 855 426  C855 431 848 434 844 430  Z  M867 424  C865 422 860 402 860 398  L860 396  L865 395  C867 394 869 394 870 395  C871 396 876 416 876 420  C876 423 875 424 874 425  C871 426 869 426 867 424  Z  M279 213  C278 211 276 197 276 196  L277 196  L285 200  C289 202 292 204 293 204  L293 205  L287 209  C280 214 279 214 279 213  Z  M383 143  C383 140 382 137 382 137  L382 135  L395 132  C410 127 410 127 413 130  C415 132 416 136 413 138  C412 140 389 147 386 147  L384 147  L383 143  Z  " />
  <path fill="#acaab9" stroke="none" d=" M0 500  L0 0  L500 0  L1000 0  L1000 500  L1000 1000  L500 1000  L0 1000  L0 500  Z  M444 888  C444 887 444 886 443 885  C442 883 447 845 449 843  C450 842 465 844 467 845  L468 846  L469 846  C469 845 471 833 470 832  L470 831  L468 832  C467 834 465 834 461 833  C454 833 430 828 425 827  L421 826  L421 825  L421 824  L420 824  C419 825 415 837 416 837  L416 838  L418 837  C419 836 433 839 435 840  C436 842 429 881 426 883  L425 885  L426 885  C428 886 441 889 443 889  L444 889  L444 888  Z  M578 886  C582 884 586 882 589 879  C593 875 593 875 593 868  C592 864 591 854 589 846  C586 836 585 830 586 828  L586 825  L586 825  C584 825 571 828 571 829  L570 830  L571 831  C573 833 573 833 576 849  C580 865 580 870 577 873  C576 875 573 876 570 877  C559 881 551 878 549 871  C547 864 545 837 546 835  L547 834  L546 834  C545 833 531 835 530 835  L530 836  L531 837  C531 838 533 846 533 855  C534 864 536 874 537 877  C538 882 542 886 547 888  C551 890 570 889 578 886  Z  M342 856  C340 855 336 837 336 833  L336 831  L342 831  C349 831 353 829 356 823  C361 812 357 804 345 797  C342 796 335 792 328 788  C321 783 315 780 315 780  L314 780  L314 783  C313 787 289 825 286 826  L284 826  L284 827  C284 828 298 837 299 837  L300 837  L300 834  C300 831 307 817 309 817  C310 817 313 819 316 821  C323 824 323 824 323 830  C324 833 325 838 325 841  C326 846 326 847 325 848  C325 849 324 850 324 850  C324 851 341 859 342 858  L343 858  L342 856  Z  M697 842  C701 840 707 836 710 833  C716 828 724 817 724 814  L724 813  L722 813  C720 813 713 803 713 800  L713 798  L712 798  C711 798 710 799 709 799  C705 803 689 812 687 812  L685 812  L685 813  C685 815 690 824 692 824  L693 824  L693 823  C693 821 705 813 707 813  C707 814 708 815 709 816  C710 822 697 833 688 834  C681 834 678 834 674 830  C670 827 667 821 667 815  C667 808 669 804 674 800  C680 795 692 792 695 795  L696 796  L697 796  C698 795 697 786 696 782  L695 780  L693 781  C692 782 689 783 685 784  C673 786 661 795 655 806  C649 821 656 839 671 845  C673 846 677 846 683 846  C689 845 692 845 697 842  Z  M559 790  C559 788 559 785 558 783  C558 780 557 776 556 774  C556 771 554 767 553 764  C551 759 550 758 541 741  C538 735 536 730 536 728  C536 727 536 725 535 724  C534 722 535 710 538 706  C539 703 552 691 560 684  C569 677 588 658 590 653  C595 642 596 639 598 622  C600 605 604 594 610 588  C614 584 621 580 624 580  C625 580 628 579 630 579  C636 577 647 582 652 589  C657 596 659 600 659 607  C659 612 658 615 655 621  C650 633 646 637 627 655  C621 661 620 663 623 665  C624 667 627 667 636 667  C642 667 648 667 649 666  C650 666 654 664 658 663  C666 661 681 653 686 649  C689 647 691 645 692 645  C693 645 710 629 712 626  C713 624 714 622 716 622  C719 621 736 593 740 580  C742 576 743 573 743 573  C743 572 744 569 745 567  C745 565 746 562 746 561  C748 557 751 526 749 523  C749 521 748 516 748 512  C747 507 747 502 746 502  C745 501 745 500 745 499  C745 497 743 493 737 479  C736 477 732 472 729 469  C726 466 723 461 723 459  C719 450 700 431 684 419  C674 412 671 410 655 405  C644 401 643 401 633 401  C620 400 601 402 588 406  C581 409 564 417 560 420  C558 422 555 425 553 426  C545 432 533 452 532 461  C532 464 531 466 531 467  C530 467 530 472 530 478  C530 498 526 496 574 496  L614 496  L612 499  C606 506 605 510 605 522  C605 531 605 533 607 538  C610 545 618 553 627 558  C630 560 632 561 633 561  C633 561 635 562 636 562  C638 563 642 564 645 565  C648 565 652 566 655 567  C657 567 660 568 662 569  L665 570  L664 570  C664 571 605 571 533 571  C403 571 403 571 385 589  C376 599 367 608 367 608  C367 609 369 612 371 614  C374 618 375 620 375 623  C376 631 380 638 387 644  C393 648 402 654 405 656  C406 656 408 658 410 659  C412 661 415 663 418 664  C420 665 423 667 425 669  C427 670 432 673 435 676  C441 680 460 698 460 699  C460 700 461 702 463 704  C465 707 465 708 465 720  C464 733 465 732 453 753  C448 763 443 777 442 786  L442 794  L500 794  L559 794  L559 790  Z  M789 770  C792 766 795 763 795 762  L795 761  L793 761  L791 762  L789 758  C786 753 786 752 790 748  C791 747 795 742 798 739  C803 733 804 732 806 732  C807 733 810 733 811 734  L814 734  L814 736  L814 738  L815 738  C816 738 818 737 819 735  C820 734 822 730 824 728  C826 725 828 722 828 721  L828 720  L825 721  C822 721 797 717 782 714  C774 712 771 711 770 709  L768 707  L764 712  C762 714 760 717 759 719  L757 721  L759 722  C760 722 762 724 763 726  C767 734 781 772 781 774  C781 775 781 776 781 776  L781 777  L782 777  C782 777 785 774 789 770  Z  M235 768  C242 766 251 758 253 750  C257 738 254 726 244 716  C236 708 231 706 221 706  C212 706 206 708 199 715  C194 720 192 726 192 734  C192 751 210 770 226 770  C228 770 232 769 235 768  Z  M870 644  C874 636 877 627 878 625  C879 623 881 618 881 615  C882 612 884 609 885 608  L887 607  L886 606  C884 605 872 601 872 602  L871 602  L872 604  C873 605 872 609 867 623  L862 640  L860 640  C858 640 823 626 821 624  L819 622  L818 623  C817 623 812 636 812 637  L812 637  L815 637  C817 636 822 638 839 646  C851 652 861 657 862 658  L863 660  L864 659  C864 659 867 652 870 644  Z  M182 649  C187 646 190 641 190 636  C190 634 188 627 186 621  C184 615 181 607 179 603  C178 598 176 594 176 594  L175 593  L173 595  C171 596 162 599 148 603  C130 609 125 610 124 609  L122 608  L122 609  C121 610 126 624 127 625  L128 626  L129 625  C131 623 144 618 147 618  L149 618  L149 619  C149 622 157 642 160 645  C166 653 174 654 182 649  Z  M475 495  C475 494 474 487 474 480  C472 461 472 422 474 413  C476 400 476 384 475 378  C473 373 469 366 463 359  C461 357 460 355 460 355  C460 354 459 352 458 350  C455 346 454 344 457 340  C459 335 463 334 473 334  C480 334 481 334 486 337  C493 340 497 346 500 356  C502 362 502 365 502 376  L501 389  L505 389  C507 389 509 388 513 384  C521 377 526 365 528 351  C530 340 530 320 529 318  C529 316 528 313 528 309  C527 305 526 298 523 292  C517 272 512 264 499 252  C487 240 469 231 453 229  C443 227 425 227 418 229  C412 230 400 234 395 237  C382 243 368 256 360 266  C345 288 343 313 354 332  C359 340 370 351 382 358  C386 360 390 363 391 365  C392 367 390 370 376 385  C366 396 362 404 363 406  L364 407  L368 406  C372 406 380 403 392 397  L397 395  L398 396  C398 396 399 400 399 405  C399 414 401 420 406 426  C411 431 414 432 419 431  L423 431  L423 434  C424 438 426 446 427 451  C428 456 430 471 431 484  C431 489 431 494 432 495  L432 496  L453 496  L474 496  L475 495  Z  M156 443  C166 438 172 427 174 412  C175 405 175 392 173 388  L173 386  L170 386  C167 387 157 384 156 382  L156 380  L155 380  C154 380 152 387 150 394  C147 402 145 408 144 409  C144 410 143 411 143 411  L143 412  L147 413  C149 413 152 414 153 414  L156 415  L156 410  C156 407 156 403 157 401  L158 397  L161 397  C164 397 165 400 165 408  C163 420 159 428 152 431  C142 435 131 431 127 422  C125 417 126 409 128 403  C130 397 136 390 138 390  L140 390  L140 389  C140 387 132 378 131 378  C130 378 129 379 128 381  C128 382 125 387 123 391  C117 400 116 406 116 418  C116 425 116 427 118 432  C123 443 131 447 144 447  C149 446 152 446 156 443  Z  M856 444  C858 443 860 441 861 440  C862 438 862 436 863 436  L863 436  L866 438  C873 442 882 440 885 433  C888 427 887 420 883 403  C877 380 875 375 874 374  L873 374  L873 375  C873 376 873 377 872 378  C869 380 826 392 824 391  L822 391  L822 393  C823 394 825 404 828 415  C831 425 834 435 834 437  C839 445 848 448 856 444  Z  M208 330  C209 327 221 309 229 298  C231 295 234 292 235 292  C236 292 237 292 237 291  L238 290  L233 286  C230 284 227 282 227 282  L226 282  L226 284  C226 286 226 287 225 288  C224 288 217 297 211 307  C208 311 205 314 205 314  C203 314 194 308 194 307  C194 306 203 293 205 290  C206 289 208 288 209 288  C209 288 210 288 210 287  L211 286  L206 282  C203 280 200 278 199 278  L198 278  L198 280  C199 281 186 301 184 301  C182 301 175 296 175 295  C175 294 186 278 192 270  C195 267 198 264 199 264  L201 264  L201 263  C201 261 192 254 190 254  L189 254  L189 256  C189 257 188 260 186 262  C179 270 164 293 160 300  L157 306  L157 306  C157 306 159 306 161 306  C165 307 203 328 204 331  L204 333  L205 333  L207 333  L208 330  Z  M810 326  C812 326 814 325 814 324  C814 324 821 320 828 316  C839 310 842 309 843 310  C844 310 845 311 845 311  L846 311  L846 309  C846 307 837 292 835 292  L834 292  L834 294  C834 295 831 298 822 303  C808 313 805 314 801 314  C797 314 792 310 788 304  C784 297 783 293 786 289  C789 285 813 267 816 267  L818 267  L818 266  C818 266 815 262 812 258  L806 251  L805 251  L805 252  L805 253  C805 254 800 258 792 265  C785 270 778 276 776 279  C772 283 772 284 772 291  C772 297 773 299 777 305  C782 315 790 323 795 326  C799 328 805 329 810 326  Z  M279 245  C281 243 283 241 285 240  C286 239 287 238 287 237  L288 236  L286 236  C284 235 282 232 282 228  C282 225 282 224 291 218  C295 214 300 211 302 210  C305 210 311 214 311 217  L311 219  L312 219  C313 219 329 209 329 208  C329 208 326 207 323 205  C319 203 315 201 313 200  C300 192 294 189 287 186  C282 183 278 181 278 179  C277 178 276 177 276 177  C274 177 259 188 259 190  L259 191  L261 191  C262 192 263 194 265 205  C267 212 269 224 271 231  C272 237 273 244 273 245  L273 248  L274 248  C275 248 277 247 279 245  Z  M732 237  L732 236  L730 236  C728 236 724 233 718 228  C713 224 707 219 705 218  C703 217 701 215 701 214  C701 213 706 205 712 196  C721 183 724 180 726 180  L728 180  L728 179  C728 177 713 168 712 168  L711 168  L711 170  C711 173 687 211 684 212  C683 213 682 214 682 214  C682 214 686 218 691 221  C696 224 705 231 711 236  L722 244  L722 246  C721 246 721 247 722 247  L723 248  L727 243  C730 240 732 237 732 237  Z  M389 182  C393 180 396 179 397 179  L397 178  L395 176  C393 174 389 162 389 159  L389 157  L396 155  C403 153 403 153 408 157  C419 165 420 167 420 169  L421 172  L422 171  C425 171 437 168 438 168  L438 167  L437 166  C434 164 419 151 418 150  L418 149  L422 146  C427 143 429 139 429 133  C429 124 424 119 415 118  C411 117 407 118 395 121  C378 126 362 131 361 133  L361 134  L363 135  C365 135 367 140 373 157  C378 172 381 180 380 182  L380 184  L381 184  C381 184 385 183 389 182  Z  M631 179  C631 178 629 169 628 167  L627 166  L624 168  C622 170 620 170 614 170  C607 170 606 170 599 167  C592 163 590 161 588 156  C584 146 588 136 598 132  C607 129 622 134 630 142  C631 144 633 147 633 148  L633 150  L634 150  C638 148 646 143 646 142  L646 141  L645 141  C644 141 641 138 637 135  C629 128 621 124 611 121  C592 117 578 124 573 140  C571 149 573 159 580 167  C589 177 600 180 618 180  C625 179 631 179 631 179  Z  M333 818  C326 815 315 808 315 807  C315 805 321 797 322 797  C324 797 343 808 344 810  C346 813 342 820 338 820  C338 820 336 819 333 818  Z  M728 519  L726 517  L727 517  L729 517  L730 519  L730 520  L730 520  L730 521  L728 519  Z  M782 741  C782 740 780 736 778 733  L775 726  L775 725  C776 725 786 727 791 729  L793 730  L790 734  C788 736 786 739 785 740  L783 742  L782 741  Z  M218 756  C211 753 204 744 204 739  C204 730 209 723 216 720  C226 715 236 719 241 729  C245 736 243 744 237 751  C232 756 224 758 218 756  Z  M168 638  C166 636 160 623 158 617  L158 614  L162 612  C165 611 167 610 169 610  L171 610  L172 614  C173 617 175 622 176 625  C179 633 179 636 174 638  C171 639 171 639 168 638  Z  M844 430  C843 429 842 426 841 424  C838 411 836 405 837 404  C837 403 848 400 849 401  C850 402 855 423 855 426  C855 431 848 434 844 430  Z  M867 424  C865 422 860 402 860 398  L860 396  L865 395  C867 394 869 394 870 395  C871 396 876 416 876 420  C876 423 875 424 874 425  C871 426 869 426 867 424  Z  M279 213  C278 211 276 197 276 196  L277 196  L285 200  C289 202 292 204 293 204  L293 205  L287 209  C280 214 279 214 279 213  Z  M383 143  C383 140 382 137 382 137  L382 135  L395 132  C410 127 410 127 413 130  C415 132 416 136 413 138  C412 140 389 147 386 147  L384 147  L383 143  Z  " />
  <path fill="#ffffff" stroke="none" d=" M0 500  L0 0  L500 0  L1000 0  L1000 500  L1000 1000  L500 1000  L0 1000  L0 500  Z  M445 889  C445 888 445 887 444 886  C443 884 444 879 446 864  C447 853 449 844 449 844  C450 843 465 845 466 847  L468 848  L469 847  C470 846 472 832 471 831  L470 830  L468 831  C466 833 463 833 443 829  C424 826 423 826 422 824  C421 824 420 823 419 823  L418 823  L417 828  C416 831 415 835 415 836  L415 839  L417 838  C420 838 424 838 430 839  L435 841  L434 843  C434 844 432 854 430 863  C428 877 427 882 425 883  L424 884  L425 885  C426 886 430 888 434 888  C444 890 444 890 445 889  Z  M578 887  C586 884 590 881 593 876  C595 872 594 864 590 846  C587 837 586 829 587 828  L587 825  L586 825  C586 824 583 824 581 825  C579 825 576 826 573 827  L569 828  L569 829  C569 830 570 831 571 832  C572 834 576 851 578 862  C579 867 578 869 577 871  C574 876 562 880 555 877  C550 875 550 872 547 851  C546 840 546 837 547 835  L548 834  L547 833  C546 832 530 833 529 835  L529 835  L530 837  C530 838 532 847 533 856  C535 875 536 881 540 885  C545 889 548 890 561 890  C569 889 573 889 578 887  Z  M343 859  C344 858 343 857 342 856  C341 854 337 837 337 834  L337 833  L342 832  C349 832 353 830 356 823  C359 817 360 813 358 808  C356 803 353 801 343 796  C339 793 331 789 325 785  C320 782 315 779 314 779  L313 779  L313 781  C313 784 311 788 304 798  C302 801 298 808 295 813  C288 823 287 825 285 825  L283 825  L283 826  C283 828 297 838 300 838  L301 838  L301 835  C301 832 308 818 309 818  C310 818 313 819 316 821  C322 824 322 824 322 830  C323 833 324 838 324 841  L325 847  L324 848  L323 849  L323 850  C324 852 327 854 338 858  C342 860 343 860 343 859  Z  M698 843  C704 840 708 837 712 832  C719 826 725 817 725 814  L725 813  L723 812  C720 811 714 803 714 800  C714 798 714 797 713 797  C713 796 707 799 701 804  C693 809 689 811 687 811  L685 811  L684 813  C684 815 690 825 692 825  L693 825  L694 823  C694 822 697 819 700 818  L705 814  L707 816  L708 817  L706 821  C703 826 694 832 688 833  C681 833 678 833 675 830  C668 824 666 814 670 807  C673 799 686 793 694 796  C696 797 698 797 698 796  C699 795 697 781 696 780  L695 779  L692 780  C691 781 687 782 684 783  C672 785 659 795 655 806  C652 811 652 813 652 819  C653 828 657 836 663 841  C669 846 673 847 683 847  C689 846 692 846 698 843  Z  M560 787  C559 772 557 767 542 740  C537 730 537 730 537 720  C537 713 537 710 538 707  C540 704 558 687 563 683  C567 681 584 664 588 658  C593 650 598 639 598 628  C600 610 605 595 612 589  C615 585 622 581 625 581  C627 581 629 581 631 580  C632 579 634 579 638 581  C643 582 650 587 650 588  C650 588 651 590 652 591  C655 594 658 602 658 607  C658 617 647 635 637 645  C625 655 622 658 620 660  L619 663  L621 666  C623 668 624 668 636 668  C644 668 650 667 652 667  C663 664 681 655 687 650  C690 648 692 646 693 646  C695 646 720 620 725 613  C739 592 747 571 750 548  C751 539 751 513 749 507  C745 491 739 478 732 469  C729 466 725 461 724 458  C722 456 720 452 718 449  C715 445 692 422 691 422  C690 422 688 420 685 419  C682 416 674 412 663 407  C662 406 658 405 655 404  C651 403 647 401 645 401  C634 398 605 400 589 405  C571 411 561 417 549 428  C535 443 529 457 529 479  C529 485 530 492 530 494  L531 497  L571 497  L610 497  L610 498  C610 498 608 502 606 505  C603 512 603 513 603 522  C603 535 605 541 613 549  C623 559 636 566 650 567  L656 568  L655 569  C655 570 604 570 528 570  C402 570 402 570 384 588  C375 598 366 607 366 608  C366 609 367 612 369 614  C371 616 373 619 373 620  C373 623 376 633 378 636  C380 639 392 649 394 650  C395 651 398 653 402 655  C405 657 410 660 413 662  C416 664 420 667 422 668  C428 673 433 676 434 676  C436 676 458 698 461 703  C464 707 464 708 464 717  C464 728 463 733 459 740  C450 755 442 774 442 779  C442 781 441 784 441 786  C440 788 440 791 440 792  L441 795  L501 795  L560 795  L560 787  Z  M790 770  L797 762  L796 761  C795 760 794 760 793 761  L791 761  L790 757  C787 752 787 754 796 742  C804 733 804 733 809 734  L813 735  L813 736  C813 737 814 738 814 739  L816 740  L817 739  C817 739 819 737 820 735  C822 732 825 728 826 726  L830 721  L829 720  L829 719  L826 720  C822 720 804 717 785 713  C775 711 773 710 771 708  C770 707 769 706 769 706  C768 706 756 720 756 721  L756 722  L758 723  C762 724 762 725 774 755  C778 766 780 773 780 775  C779 777 780 778 781 778  C782 778 786 774 790 770  Z  M235 769  C242 767 252 758 254 750  C258 738 255 726 244 715  C236 707 231 705 221 705  C212 705 206 707 199 715  C193 720 191 726 191 735  C191 745 198 756 209 764  C218 771 225 772 235 769  Z  M865 660  C866 659 870 648 879 624  C881 620 882 616 883 613  C884 611 885 609 886 609  L888 608  L888 607  C888 606 885 604 878 602  C874 601 871 600 871 601  L870 602  L871 604  C872 606 871 609 867 621  C864 630 861 637 861 638  L860 639  L842 632  C828 627 822 624 821 622  L819 620  L818 621  C816 622 811 636 812 637  L812 638  L815 638  C818 637 861 656 861 659  L862 661  L863 661  C863 661 864 660 865 660  Z  M183 650  C188 646 191 641 191 636  C191 634 189 627 187 621  C185 615 181 606 180 602  C178 597 177 592 176 592  L175 591  L173 593  C171 595 169 596 168 596  C167 597 157 600 146 603  C129 608 126 609 124 608  L122 607  L121 608  C120 609 125 625 127 627  L128 628  L130 626  C132 624 143 619 146 619  L148 619  L150 627  C156 643 159 647 164 650  C170 654 176 654 183 650  Z  M476 492  C476 489 476 481 475 475  C474 459 474 423 475 414  C476 409 476 400 477 394  C477 379 476 374 468 364  C466 361 463 357 461 355  C456 348 456 342 459 339  C461 337 463 336 464 336  C465 336 468 335 470 335  C473 334 477 334 485 338  C495 342 501 356 501 372  C501 378 501 383 500 384  C499 385 499 387 500 388  L500 390  L504 390  C513 390 521 381 526 365  C530 352 530 351 530 334  C530 314 529 305 525 291  C519 273 512 263 500 251  C489 240 470 231 453 228  C440 226 415 227 409 230  C407 230 404 232 402 233  C391 236 375 247 367 255  C360 264 357 268 352 279  C347 289 347 289 346 303  C346 318 347 324 354 334  C361 345 363 346 386 362  C392 366 392 365 379 381  C366 396 364 399 362 402  L361 405  L362 407  C365 409 373 407 385 401  C391 399 396 397 397 396  L398 396  L398 405  C398 413 398 415 400 419  C405 428 411 433 418 433  L421 433  L423 439  C424 442 425 447 425 451  C426 455 427 459 427 461  C428 462 428 470 429 478  C429 486 429 494 430 495  L430 497  L453 497  L477 497  L476 492  Z  M150 447  C160 444 169 435 173 422  C175 416 175 413 175 402  C175 394 175 389 174 387  L173 385  L170 385  C167 386 159 384 157 381  C156 380 155 379 154 379  L153 379  L151 387  C149 392 147 398 146 402  C146 405 144 408 143 409  L141 411  L142 412  C143 413 155 416 156 415  L157 415  L157 412  C156 409 158 399 160 398  C160 398 162 398 163 399  C166 402 163 418 158 425  C155 429 149 432 143 432  C138 432 130 427 128 422  C124 413 129 395 137 392  C139 391 141 389 141 389  C141 387 132 377 130 377  L129 377  L128 379  C128 380 126 382 125 385  C117 396 113 410 114 421  C116 440 133 452 150 447  Z  M856 445  C858 444 860 443 861 441  C862 440 863 438 863 438  L863 438  L867 439  C878 444 888 437 888 424  C888 417 880 383 876 374  L875 372  L874 372  C874 372 873 373 872 375  C871 377 868 378 849 384  C837 388 826 391 824 391  L822 391  L822 393  C822 396 832 434 833 437  C838 445 848 449 856 445  Z  M211 327  C213 323 216 318 217 316  C219 315 222 310 225 305  C232 295 234 293 237 293  L239 292  L239 291  C239 289 228 281 226 281  L225 282  L225 284  C225 285 224 287 222 290  C218 294 218 295 210 305  C208 309 205 313 204 313  C204 313 201 312 199 310  L195 307  L197 304  C200 298 207 289 209 289  C210 289 212 288 212 287  L212 286  L207 282  C205 280 202 278 200 277  L198 276  L198 277  C197 277 197 278 197 280  C197 281 196 284 195 285  C193 287 191 291 189 294  C186 297 185 300 184 300  L184 300  L181 299  C180 298 178 297 177 296  L176 294  L184 283  C195 268 197 265 199 265  L201 265  L202 263  L202 262  L198 258  C196 256 193 254 192 254  L189 252  L189 253  C188 253 188 254 188 255  C188 257 185 261 182 266  C172 279 164 292 160 299  L156 306  L156 307  C157 307 159 307 160 307  C165 308 202 328 203 332  L204 334  L205 334  C206 334 209 331 211 327  Z  M811 327  C813 326 821 321 828 317  C839 311 842 310 843 311  C845 312 847 312 847 309  C847 309 845 304 842 299  L837 291  L835 291  L834 292  L833 294  C833 295 824 302 809 310  C802 314 798 314 792 308  C788 303 784 295 785 292  C786 290 788 287 792 285  C795 282 801 278 805 274  C811 270 814 268 816 268  C817 269 818 268 819 268  L820 266  L816 261  C814 259 811 255 809 253  L805 249  L804 249  L803 250  L803 252  L804 254  L794 262  C789 266 781 272 778 276  C771 283 771 283 771 290  C771 297 772 298 777 306  C787 326 799 333 811 327  Z  M281 244  C285 241 288 238 288 237  C289 236 288 234 286 234  L284 234  L284 232  C282 227 283 225 288 221  C294 216 302 211 303 211  C305 211 310 215 310 218  L310 220  L312 220  C313 220 317 217 322 214  L330 209  L330 208  C330 207 328 206 326 206  C324 205 320 203 316 201  C313 199 310 197 309 197  C309 197 307 196 304 194  C301 192 294 188 289 185  C281 182 278 180 278 178  L278 177  L277 176  C275 176 258 188 258 190  C258 190 259 191 260 192  C261 192 262 194 262 196  C263 201 267 218 270 231  C271 237 272 244 272 246  L272 249  L274 249  C274 249 278 247 281 244  Z  M726 246  C727 245 730 242 731 240  L734 237  L733 235  C732 235 731 234 730 235  C729 235 727 234 725 232  C723 231 717 226 712 222  C706 218 702 215 702 214  C702 213 708 205 719 189  C722 184 724 181 726 181  C727 181 728 180 729 180  L730 178  L723 173  C711 166 711 166 710 167  L709 167  L710 169  C710 172 709 174 694 198  C688 208 685 212 683 212  L681 212  L681 214  C681 214 683 217 687 219  C704 231 720 244 720 246  C720 248 721 249 722 249  C722 249 724 248 726 246  Z  M390 182  L398 180  L398 179  C398 178 397 177 396 176  C394 174 389 159 390 158  C391 158 394 157 397 156  C403 154 403 154 407 157  C409 159 413 162 415 164  L420 169  L419 170  L419 172  L420 172  C421 173 437 170 439 169  C441 167 440 166 437 164  C435 164 432 161 430 159  C428 158 425 155 423 153  L419 149  L423 147  C428 143 430 139 430 133  C430 124 424 118 415 117  C409 116 388 121 363 130  L360 131  L360 133  L360 134  L362 135  C364 136 365 139 369 150  C372 157 375 166 377 170  C378 174 379 178 379 181  C380 183 380 185 380 185  C380 185 381 185 390 182  Z  M633 179  C632 178 632 175 631 172  C630 169 629 166 628 165  L627 165  L624 167  C620 170 608 170 601 166  C591 162 586 155 587 146  C588 140 592 136 597 134  C602 132 603 132 609 133  C613 134 618 135 621 137  C627 140 632 146 632 148  C632 149 632 150 633 150  C634 151 647 144 647 142  C647 142 646 140 644 140  C642 139 641 137 640 136  C638 133 629 127 623 124  C605 116 586 118 577 130  C566 145 572 166 589 175  C598 180 606 181 618 181  C624 180 628 181 629 181  L629 182  L631 181  L633 180  L633 179  Z  M328 814  C323 812 319 809 318 808  L316 807  L319 803  C320 800 322 798 322 798  C324 798 338 806 341 809  L344 811  L343 813  C343 816 340 819 338 819  C338 819 333 817 328 814  Z  M779 733  L777 727  L777 727  C777 726 781 727 784 728  L791 730  L791 731  C791 732 784 740 783 740  L782 740  L779 733  Z  M218 755  C212 752 205 744 205 739  C205 733 207 728 211 725  C221 716 234 718 240 729  C247 743 232 760 218 755  Z  M169 637  C167 635 161 622 159 617  L159 614  L163 613  C166 612 168 611 169 611  C170 611 172 615 173 620  C178 633 178 633 176 635  C173 638 171 639 169 637  Z  M845 429  C844 428 842 422 840 416  L837 405  L842 403  C844 402 847 401 847 401  C849 402 854 421 854 426  C854 430 848 433 845 429  Z  M868 423  C866 422 861 402 861 398  L861 397  L865 396  L869 395  L869 395  C870 396 875 416 875 419  C875 425 871 427 868 423  Z  M278 205  C277 201 277 198 277 197  L278 197  L284 200  L291 204  L290 205  C290 206 281 212 280 212  L279 212  L278 205  Z  M384 142  C383 140 383 138 383 137  L383 136  L390 134  C394 133 400 131 403 130  C410 129 410 129 412 131  C415 133 414 137 410 139  C406 140 388 146 386 146  L385 146  L384 142  Z  " />
</svg>
